<svg width="753" height="360" viewBox="0 0 753 360" fill="none" xmlns="http://www.w3.org/2000/svg">
<path d="M11.928 22.808H5.256L4.152 26H0.624L6.648 9.224H10.56L16.584 26H13.032L11.928 22.808ZM11.016 20.12L8.592 13.112L6.168 20.12H11.016ZM18.6917 19.304C18.6917 17.96 18.9557 16.768 19.4837 15.728C20.0277 14.688 20.7637 13.888 21.6917 13.328C22.6197 12.768 23.6517 12.488 24.7877 12.488C25.6517 12.488 26.4757 12.68 27.2597 13.064C28.0437 13.432 28.6677 13.928 29.1317 14.552V8.24H32.5397V26H29.1317V24.032C28.7157 24.688 28.1317 25.216 27.3797 25.616C26.6277 26.016 25.7557 26.216 24.7637 26.216C23.6437 26.216 22.6197 25.928 21.6917 25.352C20.7637 24.776 20.0277 23.968 19.4837 22.928C18.9557 21.872 18.6917 20.664 18.6917 19.304ZM29.1557 19.352C29.1557 18.536 28.9957 17.84 28.6757 17.264C28.3557 16.672 27.9237 16.224 27.3797 15.92C26.8357 15.6 26.2517 15.44 25.6277 15.44C25.0037 15.44 24.4277 15.592 23.8997 15.896C23.3717 16.2 22.9397 16.648 22.6037 17.24C22.2837 17.816 22.1237 18.504 22.1237 19.304C22.1237 20.104 22.2837 20.808 22.6037 21.416C22.9397 22.008 23.3717 22.464 23.8997 22.784C24.4437 23.104 25.0197 23.264 25.6277 23.264C26.2517 23.264 26.8357 23.112 27.3797 22.808C27.9237 22.488 28.3557 22.04 28.6757 21.464C28.9957 20.872 29.1557 20.168 29.1557 19.352ZM42.4453 26.216C41.1653 26.216 40.0133 25.936 38.9893 25.376C37.9653 24.8 37.1573 23.992 36.5653 22.952C35.9893 21.912 35.7013 20.712 35.7013 19.352C35.7013 17.992 35.9973 16.792 36.5893 15.752C37.1973 14.712 38.0213 13.912 39.0613 13.352C40.1013 12.776 41.2613 12.488 42.5413 12.488C43.8213 12.488 44.9813 12.776 46.0213 13.352C47.0613 13.912 47.8773 14.712 48.4693 15.752C49.0773 16.792 49.3813 17.992 49.3813 19.352C49.3813 20.712 49.0693 21.912 48.4453 22.952C47.8373 23.992 47.0053 24.8 45.9493 25.376C44.9093 25.936 43.7413 26.216 42.4453 26.216ZM42.4453 23.288C43.0533 23.288 43.6213 23.144 44.1493 22.856C44.6933 22.552 45.1253 22.104 45.4453 21.512C45.7653 20.92 45.9253 20.2 45.9253 19.352C45.9253 18.088 45.5893 17.12 44.9173 16.448C44.2613 15.76 43.4533 15.416 42.4933 15.416C41.5333 15.416 40.7253 15.76 40.0693 16.448C39.4293 17.12 39.1093 18.088 39.1093 19.352C39.1093 20.616 39.4213 21.592 40.0453 22.28C40.6853 22.952 41.4853 23.288 42.4453 23.288ZM55.926 14.648C56.358 14.008 56.95 13.488 57.702 13.088C58.47 12.688 59.342 12.488 60.318 12.488C61.454 12.488 62.478 12.768 63.39 13.328C64.318 13.888 65.046 14.688 65.574 15.728C66.118 16.752 66.39 17.944 66.39 19.304C66.39 20.664 66.118 21.872 65.574 22.928C65.046 23.968 64.318 24.776 63.39 25.352C62.478 25.928 61.454 26.216 60.318 26.216C59.326 26.216 58.454 26.024 57.702 25.64C56.966 25.24 56.374 24.728 55.926 24.104V26H52.566V8.24H55.926V14.648ZM62.958 19.304C62.958 18.504 62.79 17.816 62.454 17.24C62.134 16.648 61.702 16.2 61.158 15.896C60.63 15.592 60.054 15.44 59.43 15.44C58.822 15.44 58.246 15.6 57.702 15.92C57.174 16.224 56.742 16.672 56.406 17.264C56.086 17.856 55.926 18.552 55.926 19.352C55.926 20.152 56.086 20.848 56.406 21.44C56.742 22.032 57.174 22.488 57.702 22.808C58.246 23.112 58.822 23.264 59.43 23.264C60.054 23.264 60.63 23.104 61.158 22.784C61.702 22.464 62.134 22.008 62.454 21.416C62.79 20.824 62.958 20.12 62.958 19.304ZM81.9116 19.064C81.9116 19.544 81.8796 19.976 81.8156 20.36H72.0956C72.1756 21.32 72.5116 22.072 73.1036 22.616C73.6956 23.16 74.4236 23.432 75.2876 23.432C76.5356 23.432 77.4236 22.896 77.9516 21.824H81.5756C81.1916 23.104 80.4556 24.16 79.3676 24.992C78.2796 25.808 76.9436 26.216 75.3596 26.216C74.0796 26.216 72.9276 25.936 71.9036 25.376C70.8956 24.8 70.1036 23.992 69.5276 22.952C68.9676 21.912 68.6876 20.712 68.6876 19.352C68.6876 17.976 68.9676 16.768 69.5276 15.728C70.0876 14.688 70.8716 13.888 71.8796 13.328C72.8876 12.768 74.0476 12.488 75.3596 12.488C76.6236 12.488 77.7516 12.76 78.7436 13.304C79.7516 13.848 80.5276 14.624 81.0716 15.632C81.6316 16.624 81.9116 17.768 81.9116 19.064ZM78.4316 18.104C78.4156 17.24 78.1036 16.552 77.4956 16.04C76.8876 15.512 76.1436 15.248 75.2636 15.248C74.4316 15.248 73.7276 15.504 73.1516 16.016C72.5916 16.512 72.2476 17.208 72.1196 18.104H78.4316ZM103.739 14.432C103.739 15.328 103.523 16.168 103.091 16.952C102.675 17.736 102.011 18.368 101.099 18.848C100.203 19.328 99.0669 19.568 97.6909 19.568H94.8829V26H91.5229V9.248H97.6909C98.9869 9.248 100.091 9.472 101.003 9.92C101.915 10.368 102.595 10.984 103.043 11.768C103.507 12.552 103.739 13.44 103.739 14.432ZM97.5469 16.856C98.4749 16.856 99.1629 16.648 99.6109 16.232C100.059 15.8 100.283 15.2 100.283 14.432C100.283 12.8 99.3709 11.984 97.5469 11.984H94.8829V16.856H97.5469ZM110.204 14.768C110.636 14.064 111.196 13.512 111.884 13.112C112.588 12.712 113.388 12.512 114.284 12.512V16.04H113.396C112.34 16.04 111.54 16.288 110.996 16.784C110.468 17.28 110.204 18.144 110.204 19.376V26H106.844V12.704H110.204V14.768ZM129.628 19.064C129.628 19.544 129.596 19.976 129.532 20.36H119.812C119.892 21.32 120.228 22.072 120.82 22.616C121.412 23.16 122.14 23.432 123.004 23.432C124.252 23.432 125.14 22.896 125.668 21.824H129.292C128.908 23.104 128.172 24.16 127.084 24.992C125.996 25.808 124.66 26.216 123.076 26.216C121.796 26.216 120.644 25.936 119.62 25.376C118.612 24.8 117.82 23.992 117.244 22.952C116.684 21.912 116.404 20.712 116.404 19.352C116.404 17.976 116.684 16.768 117.244 15.728C117.804 14.688 118.588 13.888 119.596 13.328C120.604 12.768 121.764 12.488 123.076 12.488C124.34 12.488 125.468 12.76 126.46 13.304C127.468 13.848 128.244 14.624 128.788 15.632C129.348 16.624 129.628 17.768 129.628 19.064ZM126.148 18.104C126.132 17.24 125.82 16.552 125.212 16.04C124.604 15.512 123.86 15.248 122.98 15.248C122.148 15.248 121.444 15.504 120.868 16.016C120.308 16.512 119.964 17.208 119.836 18.104H126.148ZM149.312 12.512C150.944 12.512 152.256 13.016 153.248 14.024C154.256 15.016 154.76 16.408 154.76 18.2V26H151.4V18.656C151.4 17.616 151.136 16.824 150.608 16.28C150.08 15.72 149.36 15.44 148.448 15.44C147.536 15.44 146.808 15.72 146.264 16.28C145.736 16.824 145.472 17.616 145.472 18.656V26H142.112V18.656C142.112 17.616 141.848 16.824 141.32 16.28C140.792 15.72 140.072 15.44 139.16 15.44C138.232 15.44 137.496 15.72 136.952 16.28C136.424 16.824 136.16 17.616 136.16 18.656V26H132.8V12.704H136.16V14.312C136.592 13.752 137.144 13.312 137.816 12.992C138.504 12.672 139.256 12.512 140.072 12.512C141.112 12.512 142.04 12.736 142.856 13.184C143.672 13.616 144.304 14.24 144.752 15.056C145.184 14.288 145.808 13.672 146.624 13.208C147.456 12.744 148.352 12.512 149.312 12.512ZM160.372 11.12C159.78 11.12 159.284 10.936 158.884 10.568C158.5 10.184 158.308 9.712 158.308 9.152C158.308 8.592 158.5 8.128 158.884 7.76C159.284 7.376 159.78 7.184 160.372 7.184C160.964 7.184 161.452 7.376 161.836 7.76C162.236 8.128 162.436 8.592 162.436 9.152C162.436 9.712 162.236 10.184 161.836 10.568C161.452 10.936 160.964 11.12 160.372 11.12ZM162.028 12.704V26H158.668V12.704H162.028ZM178.428 19.064C178.428 19.544 178.396 19.976 178.332 20.36H168.612C168.692 21.32 169.028 22.072 169.62 22.616C170.212 23.16 170.94 23.432 171.804 23.432C173.052 23.432 173.94 22.896 174.468 21.824H178.092C177.708 23.104 176.972 24.16 175.884 24.992C174.796 25.808 173.46 26.216 171.876 26.216C170.596 26.216 169.444 25.936 168.42 25.376C167.412 24.8 166.62 23.992 166.044 22.952C165.484 21.912 165.204 20.712 165.204 19.352C165.204 17.976 165.484 16.768 166.044 15.728C166.604 14.688 167.388 13.888 168.396 13.328C169.404 12.768 170.564 12.488 171.876 12.488C173.14 12.488 174.268 12.76 175.26 13.304C176.268 13.848 177.044 14.624 177.588 15.632C178.148 16.624 178.428 17.768 178.428 19.064ZM174.948 18.104C174.932 17.24 174.62 16.552 174.012 16.04C173.404 15.512 172.66 15.248 171.78 15.248C170.948 15.248 170.244 15.504 169.668 16.016C169.108 16.512 168.764 17.208 168.636 18.104H174.948ZM184.961 14.768C185.393 14.064 185.953 13.512 186.641 13.112C187.345 12.712 188.145 12.512 189.041 12.512V16.04H188.153C187.097 16.04 186.297 16.288 185.753 16.784C185.225 17.28 184.961 18.144 184.961 19.376V26H181.601V12.704H184.961V14.768ZM204.384 19.064C204.384 19.544 204.352 19.976 204.288 20.36H194.568C194.648 21.32 194.984 22.072 195.576 22.616C196.168 23.16 196.896 23.432 197.76 23.432C199.008 23.432 199.896 22.896 200.424 21.824H204.048C203.664 23.104 202.928 24.16 201.84 24.992C200.752 25.808 199.416 26.216 197.832 26.216C196.552 26.216 195.4 25.936 194.376 25.376C193.368 24.8 192.576 23.992 192 22.952C191.44 21.912 191.16 20.712 191.16 19.352C191.16 17.976 191.44 16.768 192 15.728C192.56 14.688 193.344 13.888 194.352 13.328C195.36 12.768 196.52 12.488 197.832 12.488C199.096 12.488 200.224 12.76 201.216 13.304C202.224 13.848 203 14.624 203.544 15.632C204.104 16.624 204.384 17.768 204.384 19.064ZM200.904 18.104C200.888 17.24 200.576 16.552 199.968 16.04C199.36 15.512 198.616 15.248 197.736 15.248C196.904 15.248 196.2 15.504 195.624 16.016C195.064 16.512 194.72 17.208 194.592 18.104H200.904ZM226.211 14.432C226.211 15.328 225.995 16.168 225.563 16.952C225.147 17.736 224.483 18.368 223.571 18.848C222.675 19.328 221.539 19.568 220.163 19.568H217.355V26H213.995V9.248H220.163C221.459 9.248 222.563 9.472 223.475 9.92C224.387 10.368 225.067 10.984 225.515 11.768C225.979 12.552 226.211 13.44 226.211 14.432ZM220.019 16.856C220.947 16.856 221.635 16.648 222.083 16.232C222.531 15.8 222.755 15.2 222.755 14.432C222.755 12.8 221.843 11.984 220.019 11.984H217.355V16.856H220.019ZM232.677 14.768C233.109 14.064 233.669 13.512 234.357 13.112C235.061 12.712 235.861 12.512 236.757 12.512V16.04H235.869C234.813 16.04 234.013 16.288 233.469 16.784C232.941 17.28 232.677 18.144 232.677 19.376V26H229.317V12.704H232.677V14.768ZM245.644 26.216C244.364 26.216 243.212 25.936 242.188 25.376C241.164 24.8 240.356 23.992 239.764 22.952C239.188 21.912 238.9 20.712 238.9 19.352C238.9 17.992 239.196 16.792 239.788 15.752C240.396 14.712 241.22 13.912 242.26 13.352C243.3 12.776 244.46 12.488 245.74 12.488C247.02 12.488 248.18 12.776 249.22 13.352C250.26 13.912 251.076 14.712 251.668 15.752C252.276 16.792 252.58 17.992 252.58 19.352C252.58 20.712 252.268 21.912 251.644 22.952C251.036 23.992 250.204 24.8 249.148 25.376C248.108 25.936 246.94 26.216 245.644 26.216ZM245.644 23.288C246.252 23.288 246.82 23.144 247.348 22.856C247.892 22.552 248.324 22.104 248.644 21.512C248.964 20.92 249.124 20.2 249.124 19.352C249.124 18.088 248.788 17.12 248.116 16.448C247.46 15.76 246.652 15.416 245.692 15.416C244.732 15.416 243.924 15.76 243.268 16.448C242.628 17.12 242.308 18.088 242.308 19.352C242.308 20.616 242.62 21.592 243.244 22.28C243.884 22.952 244.684 23.288 245.644 23.288Z" fill="black"/>
<rect y="54" width="753" height="12" rx="6" fill="#EDECEC"/>
<rect y="54" width="687" height="12" rx="6" fill="#192BC2"/>
<g filter="url(#filter0_d_120_89)">
<circle cx="685" cy="60" r="16" fill="#EDECEC"/>
<circle cx="685" cy="60" r="14.5" stroke="#150578" stroke-width="3"/>
</g>
<path d="M11.928 113.808H5.256L4.152 117H0.624L6.648 100.224H10.56L16.584 117H13.032L11.928 113.808ZM11.016 111.12L8.592 104.112L6.168 111.12H11.016ZM18.6917 110.304C18.6917 108.96 18.9557 107.768 19.4837 106.728C20.0277 105.688 20.7637 104.888 21.6917 104.328C22.6197 103.768 23.6517 103.488 24.7877 103.488C25.6517 103.488 26.4757 103.68 27.2597 104.064C28.0437 104.432 28.6677 104.928 29.1317 105.552V99.24H32.5397V117H29.1317V115.032C28.7157 115.688 28.1317 116.216 27.3797 116.616C26.6277 117.016 25.7557 117.216 24.7637 117.216C23.6437 117.216 22.6197 116.928 21.6917 116.352C20.7637 115.776 20.0277 114.968 19.4837 113.928C18.9557 112.872 18.6917 111.664 18.6917 110.304ZM29.1557 110.352C29.1557 109.536 28.9957 108.84 28.6757 108.264C28.3557 107.672 27.9237 107.224 27.3797 106.92C26.8357 106.6 26.2517 106.44 25.6277 106.44C25.0037 106.44 24.4277 106.592 23.8997 106.896C23.3717 107.2 22.9397 107.648 22.6037 108.24C22.2837 108.816 22.1237 109.504 22.1237 110.304C22.1237 111.104 22.2837 111.808 22.6037 112.416C22.9397 113.008 23.3717 113.464 23.8997 113.784C24.4437 114.104 25.0197 114.264 25.6277 114.264C26.2517 114.264 26.8357 114.112 27.3797 113.808C27.9237 113.488 28.3557 113.04 28.6757 112.464C28.9957 111.872 29.1557 111.168 29.1557 110.352ZM42.4453 117.216C41.1653 117.216 40.0133 116.936 38.9893 116.376C37.9653 115.8 37.1573 114.992 36.5653 113.952C35.9893 112.912 35.7013 111.712 35.7013 110.352C35.7013 108.992 35.9973 107.792 36.5893 106.752C37.1973 105.712 38.0213 104.912 39.0613 104.352C40.1013 103.776 41.2613 103.488 42.5413 103.488C43.8213 103.488 44.9813 103.776 46.0213 104.352C47.0613 104.912 47.8773 105.712 48.4693 106.752C49.0773 107.792 49.3813 108.992 49.3813 110.352C49.3813 111.712 49.0693 112.912 48.4453 113.952C47.8373 114.992 47.0053 115.8 45.9493 116.376C44.9093 116.936 43.7413 117.216 42.4453 117.216ZM42.4453 114.288C43.0533 114.288 43.6213 114.144 44.1493 113.856C44.6933 113.552 45.1253 113.104 45.4453 112.512C45.7653 111.92 45.9253 111.2 45.9253 110.352C45.9253 109.088 45.5893 108.12 44.9173 107.448C44.2613 106.76 43.4533 106.416 42.4933 106.416C41.5333 106.416 40.7253 106.76 40.0693 107.448C39.4293 108.12 39.1093 109.088 39.1093 110.352C39.1093 111.616 39.4213 112.592 40.0453 113.28C40.6853 113.952 41.4853 114.288 42.4453 114.288ZM55.926 105.648C56.358 105.008 56.95 104.488 57.702 104.088C58.47 103.688 59.342 103.488 60.318 103.488C61.454 103.488 62.478 103.768 63.39 104.328C64.318 104.888 65.046 105.688 65.574 106.728C66.118 107.752 66.39 108.944 66.39 110.304C66.39 111.664 66.118 112.872 65.574 113.928C65.046 114.968 64.318 115.776 63.39 116.352C62.478 116.928 61.454 117.216 60.318 117.216C59.326 117.216 58.454 117.024 57.702 116.64C56.966 116.24 56.374 115.728 55.926 115.104V117H52.566V99.24H55.926V105.648ZM62.958 110.304C62.958 109.504 62.79 108.816 62.454 108.24C62.134 107.648 61.702 107.2 61.158 106.896C60.63 106.592 60.054 106.44 59.43 106.44C58.822 106.44 58.246 106.6 57.702 106.92C57.174 107.224 56.742 107.672 56.406 108.264C56.086 108.856 55.926 109.552 55.926 110.352C55.926 111.152 56.086 111.848 56.406 112.44C56.742 113.032 57.174 113.488 57.702 113.808C58.246 114.112 58.822 114.264 59.43 114.264C60.054 114.264 60.63 114.104 61.158 113.784C61.702 113.464 62.134 113.008 62.454 112.416C62.79 111.824 62.958 111.12 62.958 110.304ZM81.9116 110.064C81.9116 110.544 81.8796 110.976 81.8156 111.36H72.0956C72.1756 112.32 72.5116 113.072 73.1036 113.616C73.6956 114.16 74.4236 114.432 75.2876 114.432C76.5356 114.432 77.4236 113.896 77.9516 112.824H81.5756C81.1916 114.104 80.4556 115.16 79.3676 115.992C78.2796 116.808 76.9436 117.216 75.3596 117.216C74.0796 117.216 72.9276 116.936 71.9036 116.376C70.8956 115.8 70.1036 114.992 69.5276 113.952C68.9676 112.912 68.6876 111.712 68.6876 110.352C68.6876 108.976 68.9676 107.768 69.5276 106.728C70.0876 105.688 70.8716 104.888 71.8796 104.328C72.8876 103.768 74.0476 103.488 75.3596 103.488C76.6236 103.488 77.7516 103.76 78.7436 104.304C79.7516 104.848 80.5276 105.624 81.0716 106.632C81.6316 107.624 81.9116 108.768 81.9116 110.064ZM78.4316 109.104C78.4156 108.24 78.1036 107.552 77.4956 107.04C76.8876 106.512 76.1436 106.248 75.2636 106.248C74.4316 106.248 73.7276 106.504 73.1516 107.016C72.5916 107.512 72.2476 108.208 72.1196 109.104H78.4316ZM101.795 113.808H95.1229L94.0189 117H90.4909L96.5149 100.224H100.427L106.451 117H102.899L101.795 113.808ZM100.883 111.12L98.4589 104.112L96.0349 111.12H100.883ZM115.519 106.464H113.191V117H109.783V106.464H108.271V103.704H109.783V103.032C109.783 101.4 110.247 100.2 111.175 99.432C112.103 98.664 113.503 98.304 115.375 98.352V101.184C114.559 101.168 113.991 101.304 113.671 101.592C113.351 101.88 113.191 102.4 113.191 103.152V103.704H115.519V106.464ZM122.328 106.464V112.896C122.328 113.344 122.432 113.672 122.64 113.88C122.864 114.072 123.232 114.168 123.744 114.168H125.304V117H123.192C120.36 117 118.944 115.624 118.944 112.872V106.464H117.36V103.704H118.944V100.416H122.328V103.704H125.304V106.464H122.328ZM140.801 110.064C140.801 110.544 140.769 110.976 140.705 111.36H130.985C131.065 112.32 131.401 113.072 131.993 113.616C132.585 114.16 133.313 114.432 134.177 114.432C135.425 114.432 136.313 113.896 136.841 112.824H140.465C140.081 114.104 139.345 115.16 138.257 115.992C137.169 116.808 135.833 117.216 134.249 117.216C132.969 117.216 131.817 116.936 130.793 116.376C129.785 115.8 128.993 114.992 128.417 113.952C127.857 112.912 127.577 111.712 127.577 110.352C127.577 108.976 127.857 107.768 128.417 106.728C128.977 105.688 129.761 104.888 130.769 104.328C131.777 103.768 132.937 103.488 134.249 103.488C135.513 103.488 136.641 103.76 137.633 104.304C138.641 104.848 139.417 105.624 139.961 106.632C140.521 107.624 140.801 108.768 140.801 110.064ZM137.321 109.104C137.305 108.24 136.993 107.552 136.385 107.04C135.777 106.512 135.033 106.248 134.153 106.248C133.321 106.248 132.617 106.504 132.041 107.016C131.481 107.512 131.137 108.208 131.009 109.104H137.321ZM147.333 105.768C147.765 105.064 148.325 104.512 149.013 104.112C149.717 103.712 150.517 103.512 151.413 103.512V107.04H150.525C149.469 107.04 148.669 107.288 148.125 107.784C147.597 108.28 147.333 109.144 147.333 110.376V117H143.973V103.704H147.333V105.768ZM164.195 102.96V107.16H169.835V109.824H164.195V114.264H170.555V117H160.835V100.224H170.555V102.96H164.195ZM180.425 106.464H178.097V117H174.689V106.464H173.177V103.704H174.689V103.032C174.689 101.4 175.153 100.2 176.081 99.432C177.009 98.664 178.409 98.304 180.281 98.352V101.184C179.465 101.168 178.897 101.304 178.577 101.592C178.257 101.88 178.097 102.4 178.097 103.152V103.704H180.425V106.464ZM189.418 106.464H187.09V117H183.682V106.464H182.17V103.704H183.682V103.032C183.682 101.4 184.146 100.2 185.074 99.432C186.002 98.664 187.402 98.304 189.274 98.352V101.184C188.458 101.168 187.89 101.304 187.57 101.592C187.25 101.88 187.09 102.4 187.09 103.152V103.704H189.418V106.464ZM204.675 110.064C204.675 110.544 204.643 110.976 204.579 111.36H194.859C194.939 112.32 195.275 113.072 195.867 113.616C196.459 114.16 197.187 114.432 198.051 114.432C199.299 114.432 200.187 113.896 200.715 112.824H204.339C203.955 114.104 203.219 115.16 202.131 115.992C201.043 116.808 199.707 117.216 198.123 117.216C196.843 117.216 195.691 116.936 194.667 116.376C193.659 115.8 192.867 114.992 192.291 113.952C191.731 112.912 191.451 111.712 191.451 110.352C191.451 108.976 191.731 107.768 192.291 106.728C192.851 105.688 193.635 104.888 194.643 104.328C195.651 103.768 196.811 103.488 198.123 103.488C199.387 103.488 200.515 103.76 201.507 104.304C202.515 104.848 203.291 105.624 203.835 106.632C204.395 107.624 204.675 108.768 204.675 110.064ZM201.195 109.104C201.179 108.24 200.867 107.552 200.259 107.04C199.651 106.512 198.907 106.248 198.027 106.248C197.195 106.248 196.491 106.504 195.915 107.016C195.355 107.512 195.011 108.208 194.883 109.104H201.195ZM206.984 110.352C206.984 108.976 207.264 107.776 207.824 106.752C208.384 105.712 209.16 104.912 210.152 104.352C211.144 103.776 212.28 103.488 213.56 103.488C215.208 103.488 216.568 103.904 217.64 104.736C218.728 105.552 219.456 106.704 219.824 108.192H216.2C216.008 107.616 215.68 107.168 215.216 106.848C214.768 106.512 214.208 106.344 213.536 106.344C212.576 106.344 211.816 106.696 211.256 107.4C210.696 108.088 210.416 109.072 210.416 110.352C210.416 111.616 210.696 112.6 211.256 113.304C211.816 113.992 212.576 114.336 213.536 114.336C214.896 114.336 215.784 113.728 216.2 112.512H219.824C219.456 113.952 218.728 115.096 217.64 115.944C216.552 116.792 215.192 117.216 213.56 117.216C212.28 117.216 211.144 116.936 210.152 116.376C209.16 115.8 208.384 115 207.824 113.976C207.264 112.936 206.984 111.728 206.984 110.352ZM226.917 106.464V112.896C226.917 113.344 227.021 113.672 227.229 113.88C227.453 114.072 227.821 114.168 228.333 114.168H229.893V117H227.781C224.949 117 223.533 115.624 223.533 112.872V106.464H221.949V103.704H223.533V100.416H226.917V103.704H229.893V106.464H226.917ZM238.118 117.216C237.03 117.216 236.054 117.024 235.19 116.64C234.326 116.24 233.638 115.704 233.126 115.032C232.63 114.36 232.358 113.616 232.31 112.8H235.694C235.758 113.312 236.006 113.736 236.438 114.072C236.886 114.408 237.438 114.576 238.094 114.576C238.734 114.576 239.23 114.448 239.582 114.192C239.95 113.936 240.134 113.608 240.134 113.208C240.134 112.776 239.91 112.456 239.462 112.248C239.03 112.024 238.334 111.784 237.374 111.528C236.382 111.288 235.566 111.04 234.926 110.784C234.302 110.528 233.758 110.136 233.294 109.608C232.846 109.08 232.622 108.368 232.622 107.472C232.622 106.736 232.83 106.064 233.246 105.456C233.678 104.848 234.286 104.368 235.07 104.016C235.87 103.664 236.806 103.488 237.878 103.488C239.462 103.488 240.726 103.888 241.67 104.688C242.614 105.472 243.134 106.536 243.23 107.88H240.014C239.966 107.352 239.742 106.936 239.342 106.632C238.958 106.312 238.438 106.152 237.782 106.152C237.174 106.152 236.702 106.264 236.366 106.488C236.046 106.712 235.886 107.024 235.886 107.424C235.886 107.872 236.11 108.216 236.558 108.456C237.006 108.68 237.702 108.912 238.646 109.152C239.606 109.392 240.398 109.64 241.022 109.896C241.646 110.152 242.182 110.552 242.63 111.096C243.094 111.624 243.334 112.328 243.35 113.208C243.35 113.976 243.134 114.664 242.702 115.272C242.286 115.88 241.678 116.36 240.878 116.712C240.094 117.048 239.174 117.216 238.118 117.216Z" fill="black"/>
<rect y="145" width="753" height="12" rx="6" fill="#EDECEC"/>
<rect y="145" width="537" height="12" rx="6" fill="#192BC2"/>
<g filter="url(#filter1_d_120_89)">
<circle cx="537" cy="151" r="16" fill="#EDECEC"/>
<circle cx="537" cy="151" r="14.5" stroke="#150578" stroke-width="3"/>
</g>
<path d="M24.048 191.248L19.368 208H15.408L12.264 196.072L8.976 208L5.04 208.024L0.528 191.248H4.128L7.08 204.256L10.488 191.248H14.232L17.448 204.184L20.424 191.248H24.048ZM32.8659 208.216C31.5859 208.216 30.4339 207.936 29.4099 207.376C28.3859 206.8 27.5779 205.992 26.9859 204.952C26.4099 203.912 26.1219 202.712 26.1219 201.352C26.1219 199.992 26.4179 198.792 27.0099 197.752C27.6179 196.712 28.4419 195.912 29.4819 195.352C30.5219 194.776 31.6819 194.488 32.9619 194.488C34.2419 194.488 35.4019 194.776 36.4419 195.352C37.4819 195.912 38.2979 196.712 38.8899 197.752C39.4979 198.792 39.8019 199.992 39.8019 201.352C39.8019 202.712 39.4899 203.912 38.8659 204.952C38.2579 205.992 37.4259 206.8 36.3699 207.376C35.3299 207.936 34.1619 208.216 32.8659 208.216ZM32.8659 205.288C33.4739 205.288 34.0419 205.144 34.5699 204.856C35.1139 204.552 35.5459 204.104 35.8659 203.512C36.1859 202.92 36.3459 202.2 36.3459 201.352C36.3459 200.088 36.0099 199.12 35.3379 198.448C34.6819 197.76 33.8739 197.416 32.9139 197.416C31.9539 197.416 31.1459 197.76 30.4899 198.448C29.8499 199.12 29.5299 200.088 29.5299 201.352C29.5299 202.616 29.8419 203.592 30.4659 204.28C31.1059 204.952 31.9059 205.288 32.8659 205.288ZM46.3466 196.768C46.7786 196.064 47.3386 195.512 48.0266 195.112C48.7306 194.712 49.5306 194.512 50.4266 194.512V198.04H49.5386C48.4826 198.04 47.6826 198.288 47.1386 198.784C46.6106 199.28 46.3466 200.144 46.3466 201.376V208H42.9866V194.704H46.3466V196.768ZM52.5457 201.304C52.5457 199.96 52.8097 198.768 53.3377 197.728C53.8817 196.688 54.6177 195.888 55.5458 195.328C56.4737 194.768 57.5057 194.488 58.6417 194.488C59.5058 194.488 60.3298 194.68 61.1138 195.064C61.8978 195.432 62.5218 195.928 62.9858 196.552V190.24H66.3938V208H62.9858V206.032C62.5698 206.688 61.9858 207.216 61.2338 207.616C60.4818 208.016 59.6098 208.216 58.6178 208.216C57.4978 208.216 56.4737 207.928 55.5458 207.352C54.6177 206.776 53.8817 205.968 53.3377 204.928C52.8097 203.872 52.5457 202.664 52.5457 201.304ZM63.0098 201.352C63.0098 200.536 62.8498 199.84 62.5298 199.264C62.2098 198.672 61.7778 198.224 61.2338 197.92C60.6898 197.6 60.1058 197.44 59.4818 197.44C58.8578 197.44 58.2818 197.592 57.7537 197.896C57.2257 198.2 56.7938 198.648 56.4578 199.24C56.1378 199.816 55.9778 200.504 55.9778 201.304C55.9778 202.104 56.1378 202.808 56.4578 203.416C56.7938 204.008 57.2257 204.464 57.7537 204.784C58.2977 205.104 58.8738 205.264 59.4818 205.264C60.1058 205.264 60.6898 205.112 61.2338 204.808C61.7778 204.488 62.2098 204.04 62.5298 203.464C62.8498 202.872 63.0098 202.168 63.0098 201.352ZM82.6114 196.432C82.6114 197.328 82.3954 198.168 81.9634 198.952C81.5474 199.736 80.8834 200.368 79.9714 200.848C79.0754 201.328 77.9394 201.568 76.5634 201.568H73.7554V208H70.3954V191.248H76.5634C77.8594 191.248 78.9634 191.472 79.8754 191.92C80.7874 192.368 81.4674 192.984 81.9154 193.768C82.3794 194.552 82.6114 195.44 82.6114 196.432ZM76.4194 198.856C77.3474 198.856 78.0354 198.648 78.4834 198.232C78.9314 197.8 79.1554 197.2 79.1554 196.432C79.1554 194.8 78.2434 193.984 76.4194 193.984H73.7554V198.856H76.4194ZM89.0769 196.768C89.5089 196.064 90.0689 195.512 90.7569 195.112C91.4609 194.712 92.2609 194.512 93.1569 194.512V198.04H92.2689C91.2129 198.04 90.4129 198.288 89.8689 198.784C89.3409 199.28 89.0769 200.144 89.0769 201.376V208H85.7169V194.704H89.0769V196.768ZM108.5 201.064C108.5 201.544 108.468 201.976 108.404 202.36H98.6841C98.7641 203.32 99.1001 204.072 99.6921 204.616C100.284 205.16 101.012 205.432 101.876 205.432C103.124 205.432 104.012 204.896 104.54 203.824H108.164C107.78 205.104 107.044 206.16 105.956 206.992C104.868 207.808 103.532 208.216 101.948 208.216C100.668 208.216 99.5161 207.936 98.4921 207.376C97.4841 206.8 96.6921 205.992 96.1161 204.952C95.5561 203.912 95.2761 202.712 95.2761 201.352C95.2761 199.976 95.5561 198.768 96.1161 197.728C96.6761 196.688 97.4601 195.888 98.4681 195.328C99.4761 194.768 100.636 194.488 101.948 194.488C103.212 194.488 104.34 194.76 105.332 195.304C106.34 195.848 107.116 196.624 107.66 197.632C108.22 198.624 108.5 199.768 108.5 201.064ZM105.02 200.104C105.004 199.24 104.692 198.552 104.084 198.04C103.476 197.512 102.732 197.248 101.852 197.248C101.02 197.248 100.316 197.504 99.7401 198.016C99.1801 198.512 98.8361 199.208 98.7081 200.104H105.02ZM116.761 208.216C115.673 208.216 114.697 208.024 113.833 207.64C112.969 207.24 112.281 206.704 111.769 206.032C111.273 205.36 111.001 204.616 110.953 203.8H114.337C114.401 204.312 114.649 204.736 115.081 205.072C115.529 205.408 116.081 205.576 116.737 205.576C117.377 205.576 117.873 205.448 118.225 205.192C118.593 204.936 118.777 204.608 118.777 204.208C118.777 203.776 118.553 203.456 118.105 203.248C117.673 203.024 116.977 202.784 116.017 202.528C115.025 202.288 114.209 202.04 113.569 201.784C112.945 201.528 112.401 201.136 111.937 200.608C111.489 200.08 111.265 199.368 111.265 198.472C111.265 197.736 111.473 197.064 111.889 196.456C112.321 195.848 112.929 195.368 113.713 195.016C114.513 194.664 115.449 194.488 116.521 194.488C118.105 194.488 119.369 194.888 120.313 195.688C121.257 196.472 121.777 197.536 121.873 198.88H118.657C118.609 198.352 118.385 197.936 117.985 197.632C117.601 197.312 117.081 197.152 116.425 197.152C115.817 197.152 115.345 197.264 115.009 197.488C114.689 197.712 114.529 198.024 114.529 198.424C114.529 198.872 114.753 199.216 115.201 199.456C115.649 199.68 116.345 199.912 117.289 200.152C118.249 200.392 119.041 200.64 119.665 200.896C120.289 201.152 120.825 201.552 121.273 202.096C121.737 202.624 121.977 203.328 121.993 204.208C121.993 204.976 121.777 205.664 121.345 206.272C120.929 206.88 120.321 207.36 119.521 207.712C118.737 208.048 117.817 208.216 116.761 208.216ZM130.559 208.216C129.471 208.216 128.495 208.024 127.631 207.64C126.767 207.24 126.079 206.704 125.567 206.032C125.071 205.36 124.799 204.616 124.751 203.8H128.135C128.199 204.312 128.447 204.736 128.879 205.072C129.327 205.408 129.879 205.576 130.535 205.576C131.175 205.576 131.671 205.448 132.023 205.192C132.391 204.936 132.575 204.608 132.575 204.208C132.575 203.776 132.351 203.456 131.903 203.248C131.471 203.024 130.775 202.784 129.815 202.528C128.823 202.288 128.007 202.04 127.367 201.784C126.743 201.528 126.199 201.136 125.735 200.608C125.287 200.08 125.063 199.368 125.063 198.472C125.063 197.736 125.271 197.064 125.687 196.456C126.119 195.848 126.727 195.368 127.511 195.016C128.311 194.664 129.247 194.488 130.319 194.488C131.903 194.488 133.167 194.888 134.111 195.688C135.055 196.472 135.575 197.536 135.671 198.88H132.455C132.407 198.352 132.183 197.936 131.783 197.632C131.399 197.312 130.879 197.152 130.223 197.152C129.615 197.152 129.143 197.264 128.807 197.488C128.487 197.712 128.327 198.024 128.327 198.424C128.327 198.872 128.551 199.216 128.999 199.456C129.447 199.68 130.143 199.912 131.087 200.152C132.047 200.392 132.839 200.64 133.463 200.896C134.087 201.152 134.623 201.552 135.071 202.096C135.535 202.624 135.775 203.328 135.791 204.208C135.791 204.976 135.575 205.664 135.143 206.272C134.727 206.88 134.119 207.36 133.319 207.712C132.535 208.048 131.615 208.216 130.559 208.216Z" fill="black"/>
<rect y="236" width="753" height="12" rx="6" fill="#EDECEC"/>
<rect y="236" width="681" height="12" rx="6" fill="#192BC2"/>
<g filter="url(#filter2_d_120_89)">
<circle cx="680" cy="242" r="16" fill="#EDECEC"/>
<circle cx="680" cy="242" r="14.5" stroke="#150578" stroke-width="3"/>
</g>
<path d="M19.92 282.248V299H16.56V288.104L12.072 299H9.528L5.016 288.104V299H1.656V282.248H5.472L10.8 294.704L16.128 282.248H19.92ZM23.0979 292.304C23.0979 290.96 23.3619 289.768 23.8899 288.728C24.4339 287.688 25.1619 286.888 26.0739 286.328C27.0019 285.768 28.0339 285.488 29.1699 285.488C30.1619 285.488 31.0259 285.688 31.7619 286.088C32.5139 286.488 33.1139 286.992 33.5619 287.6V285.704H36.9459V299H33.5619V297.056C33.1299 297.68 32.5299 298.2 31.7619 298.616C31.0099 299.016 30.1379 299.216 29.1459 299.216C28.0259 299.216 27.0019 298.928 26.0739 298.352C25.1619 297.776 24.4339 296.968 23.8899 295.928C23.3619 294.872 23.0979 293.664 23.0979 292.304ZM33.5619 292.352C33.5619 291.536 33.4019 290.84 33.0819 290.264C32.7619 289.672 32.3299 289.224 31.7859 288.92C31.2419 288.6 30.6579 288.44 30.0339 288.44C29.4099 288.44 28.8339 288.592 28.3059 288.896C27.7779 289.2 27.3459 289.648 27.0099 290.24C26.6899 290.816 26.5299 291.504 26.5299 292.304C26.5299 293.104 26.6899 293.808 27.0099 294.416C27.3459 295.008 27.7779 295.464 28.3059 295.784C28.8499 296.104 29.4259 296.264 30.0339 296.264C30.6579 296.264 31.2419 296.112 31.7859 295.808C32.3299 295.488 32.7619 295.04 33.0819 294.464C33.4019 293.872 33.5619 293.168 33.5619 292.352ZM44.3076 287.768C44.7396 287.064 45.2996 286.512 45.9876 286.112C46.6916 285.712 47.4916 285.512 48.3876 285.512V289.04H47.4996C46.4436 289.04 45.6436 289.288 45.0996 289.784C44.5716 290.28 44.3076 291.144 44.3076 292.376V299H40.9476V285.704H44.3076V287.768ZM59.2427 299L54.7307 293.336V299H51.3707V281.24H54.7307V291.344L59.1947 285.704H63.5627L57.7067 292.376L63.6107 299H59.2427ZM78.4663 292.064C78.4663 292.544 78.4343 292.976 78.3703 293.36H68.6503C68.7303 294.32 69.0663 295.072 69.6583 295.616C70.2503 296.16 70.9783 296.432 71.8423 296.432C73.0903 296.432 73.9783 295.896 74.5063 294.824H78.1303C77.7463 296.104 77.0103 297.16 75.9223 297.992C74.8343 298.808 73.4983 299.216 71.9143 299.216C70.6343 299.216 69.4823 298.936 68.4583 298.376C67.4503 297.8 66.6583 296.992 66.0823 295.952C65.5223 294.912 65.2423 293.712 65.2423 292.352C65.2423 290.976 65.5223 289.768 66.0823 288.728C66.6423 287.688 67.4263 286.888 68.4343 286.328C69.4423 285.768 70.6023 285.488 71.9143 285.488C73.1783 285.488 74.3063 285.76 75.2983 286.304C76.3063 286.848 77.0823 287.624 77.6263 288.632C78.1863 289.624 78.4663 290.768 78.4663 292.064ZM74.9863 291.104C74.9703 290.24 74.6583 289.552 74.0503 289.04C73.4423 288.512 72.6983 288.248 71.8183 288.248C70.9863 288.248 70.2823 288.504 69.7063 289.016C69.1463 289.512 68.8023 290.208 68.6743 291.104H74.9863ZM85.5508 288.464V294.896C85.5508 295.344 85.6548 295.672 85.8628 295.88C86.0868 296.072 86.4548 296.168 86.9668 296.168H88.5268V299H86.4148C83.5828 299 82.1668 297.624 82.1668 294.872V288.464H80.5828V285.704H82.1668V282.416H85.5508V285.704H88.5268V288.464H85.5508ZM93.3675 284.12C92.7755 284.12 92.2795 283.936 91.8795 283.568C91.4955 283.184 91.3035 282.712 91.3035 282.152C91.3035 281.592 91.4955 281.128 91.8795 280.76C92.2795 280.376 92.7755 280.184 93.3675 280.184C93.9595 280.184 94.4475 280.376 94.8315 280.76C95.2315 281.128 95.4315 281.592 95.4315 282.152C95.4315 282.712 95.2315 283.184 94.8315 283.568C94.4475 283.936 93.9595 284.12 93.3675 284.12ZM95.0235 285.704V299H91.6635V285.704H95.0235ZM106.431 285.512C108.015 285.512 109.295 286.016 110.271 287.024C111.247 288.016 111.735 289.408 111.735 291.2V299H108.375V291.656C108.375 290.6 108.111 289.792 107.583 289.232C107.055 288.656 106.335 288.368 105.423 288.368C104.495 288.368 103.759 288.656 103.215 289.232C102.687 289.792 102.423 290.6 102.423 291.656V299H99.0632V285.704H102.423V287.36C102.871 286.784 103.439 286.336 104.127 286.016C104.831 285.68 105.599 285.512 106.431 285.512ZM120.858 285.488C121.85 285.488 122.722 285.688 123.474 286.088C124.226 286.472 124.818 286.976 125.25 287.6V285.704H128.634V299.096C128.634 300.328 128.386 301.424 127.89 302.384C127.394 303.36 126.65 304.128 125.658 304.688C124.666 305.264 123.466 305.552 122.058 305.552C120.17 305.552 118.618 305.112 117.402 304.232C116.202 303.352 115.522 302.152 115.362 300.632H118.698C118.874 301.24 119.25 301.72 119.826 302.072C120.418 302.44 121.13 302.624 121.962 302.624C122.938 302.624 123.73 302.328 124.338 301.736C124.946 301.16 125.25 300.28 125.25 299.096V297.032C124.818 297.656 124.218 298.176 123.45 298.592C122.698 299.008 121.834 299.216 120.858 299.216C119.738 299.216 118.714 298.928 117.786 298.352C116.858 297.776 116.122 296.968 115.578 295.928C115.05 294.872 114.786 293.664 114.786 292.304C114.786 290.96 115.05 289.768 115.578 288.728C116.122 287.688 116.85 286.888 117.762 286.328C118.69 285.768 119.722 285.488 120.858 285.488ZM125.25 292.352C125.25 291.536 125.09 290.84 124.77 290.264C124.45 289.672 124.018 289.224 123.474 288.92C122.93 288.6 122.346 288.44 121.722 288.44C121.098 288.44 120.522 288.592 119.994 288.896C119.466 289.2 119.034 289.648 118.698 290.24C118.378 290.816 118.218 291.504 118.218 292.304C118.218 293.104 118.378 293.808 118.698 294.416C119.034 295.008 119.466 295.464 119.994 295.784C120.538 296.104 121.114 296.264 121.722 296.264C122.346 296.264 122.93 296.112 123.474 295.808C124.018 295.488 124.45 295.04 124.77 294.464C125.09 293.872 125.25 293.168 125.25 292.352Z" fill="black"/>
<rect y="327" width="753" height="12" rx="6" fill="#EDECEC"/>
<rect y="327" width="637" height="12" rx="6" fill="#192BC2"/>
<g filter="url(#filter3_d_120_89)">
<circle cx="636" cy="333" r="16" fill="#EDECEC"/>
<circle cx="636" cy="333" r="14.5" stroke="#150578" stroke-width="3"/>
</g>
<defs>
<filter id="filter0_d_120_89" x="662" y="41" width="46" height="46" filterUnits="userSpaceOnUse" color-interpolation-filters="sRGB">
<feFlood flood-opacity="0" result="BackgroundImageFix"/>
<feColorMatrix in="SourceAlpha" type="matrix" values="0 0 0 0 0 0 0 0 0 0 0 0 0 0 0 0 0 0 127 0" result="hardAlpha"/>
<feOffset dy="4"/>
<feGaussianBlur stdDeviation="3.5"/>
<feComposite in2="hardAlpha" operator="out"/>
<feColorMatrix type="matrix" values="0 0 0 0 0 0 0 0 0 0 0 0 0 0 0 0 0 0 0.2 0"/>
<feBlend mode="normal" in2="BackgroundImageFix" result="effect1_dropShadow_120_89"/>
<feBlend mode="normal" in="SourceGraphic" in2="effect1_dropShadow_120_89" result="shape"/>
</filter>
<filter id="filter1_d_120_89" x="514" y="132" width="46" height="46" filterUnits="userSpaceOnUse" color-interpolation-filters="sRGB">
<feFlood flood-opacity="0" result="BackgroundImageFix"/>
<feColorMatrix in="SourceAlpha" type="matrix" values="0 0 0 0 0 0 0 0 0 0 0 0 0 0 0 0 0 0 127 0" result="hardAlpha"/>
<feOffset dy="4"/>
<feGaussianBlur stdDeviation="3.5"/>
<feComposite in2="hardAlpha" operator="out"/>
<feColorMatrix type="matrix" values="0 0 0 0 0 0 0 0 0 0 0 0 0 0 0 0 0 0 0.2 0"/>
<feBlend mode="normal" in2="BackgroundImageFix" result="effect1_dropShadow_120_89"/>
<feBlend mode="normal" in="SourceGraphic" in2="effect1_dropShadow_120_89" result="shape"/>
</filter>
<filter id="filter2_d_120_89" x="657" y="223" width="46" height="46" filterUnits="userSpaceOnUse" color-interpolation-filters="sRGB">
<feFlood flood-opacity="0" result="BackgroundImageFix"/>
<feColorMatrix in="SourceAlpha" type="matrix" values="0 0 0 0 0 0 0 0 0 0 0 0 0 0 0 0 0 0 127 0" result="hardAlpha"/>
<feOffset dy="4"/>
<feGaussianBlur stdDeviation="3.5"/>
<feComposite in2="hardAlpha" operator="out"/>
<feColorMatrix type="matrix" values="0 0 0 0 0 0 0 0 0 0 0 0 0 0 0 0 0 0 0.2 0"/>
<feBlend mode="normal" in2="BackgroundImageFix" result="effect1_dropShadow_120_89"/>
<feBlend mode="normal" in="SourceGraphic" in2="effect1_dropShadow_120_89" result="shape"/>
</filter>
<filter id="filter3_d_120_89" x="613" y="314" width="46" height="46" filterUnits="userSpaceOnUse" color-interpolation-filters="sRGB">
<feFlood flood-opacity="0" result="BackgroundImageFix"/>
<feColorMatrix in="SourceAlpha" type="matrix" values="0 0 0 0 0 0 0 0 0 0 0 0 0 0 0 0 0 0 127 0" result="hardAlpha"/>
<feOffset dy="4"/>
<feGaussianBlur stdDeviation="3.5"/>
<feComposite in2="hardAlpha" operator="out"/>
<feColorMatrix type="matrix" values="0 0 0 0 0 0 0 0 0 0 0 0 0 0 0 0 0 0 0.2 0"/>
<feBlend mode="normal" in2="BackgroundImageFix" result="effect1_dropShadow_120_89"/>
<feBlend mode="normal" in="SourceGraphic" in2="effect1_dropShadow_120_89" result="shape"/>
</filter>
</defs>
</svg>
