<svg width="753" height="719" viewBox="0 0 753 719" fill="none" xmlns="http://www.w3.org/2000/svg">
<path d="M15.552 9.248V26H12.192V18.872H5.016V26H1.656V9.248H5.016V16.136H12.192V9.248H15.552ZM30.9791 9.248V11.96H26.5151V26H23.1551V11.96H18.6911V9.248H30.9791ZM52.4147 9.248V26H49.0547V15.104L44.5667 26H42.0227L37.5107 15.104V26H34.1507V9.248H37.9667L43.2947 21.704L48.6227 9.248H52.4147ZM59.8166 23.336H65.3366V26H56.4566V9.248H59.8166V23.336Z" fill="black"/>
<rect y="54" width="753" height="12" rx="6" fill="#EDECEC"/>
<rect y="54" width="687" height="12" rx="6" fill="#192BC2"/>
<g filter="url(#filter0_d_125_123)">
<circle cx="685" cy="60" r="16" fill="#EDECEC"/>
<circle cx="685" cy="60" r="14.5" stroke="#150578" stroke-width="3"/>
</g>
<path d="M0.84 108.6C0.84 106.952 1.208 105.48 1.944 104.184C2.696 102.872 3.712 101.856 4.992 101.136C6.288 100.4 7.736 100.032 9.336 100.032C11.208 100.032 12.848 100.512 14.256 101.472C15.664 102.432 16.648 103.76 17.208 105.456H13.344C12.96 104.656 12.416 104.056 11.712 103.656C11.024 103.256 10.224 103.056 9.312 103.056C8.336 103.056 7.464 103.288 6.696 103.752C5.944 104.2 5.352 104.84 4.92 105.672C4.504 106.504 4.296 107.48 4.296 108.6C4.296 109.704 4.504 110.68 4.92 111.528C5.352 112.36 5.944 113.008 6.696 113.472C7.464 113.92 8.336 114.144 9.312 114.144C10.224 114.144 11.024 113.944 11.712 113.544C12.416 113.128 12.96 112.52 13.344 111.72H17.208C16.648 113.432 15.664 114.768 14.256 115.728C12.864 116.672 11.224 117.144 9.336 117.144C7.736 117.144 6.288 116.784 4.992 116.064C3.712 115.328 2.696 114.312 1.944 113.016C1.208 111.72 0.84 110.248 0.84 108.6ZM26.5819 117.168C25.4139 117.168 24.3579 116.968 23.4139 116.568C22.4859 116.168 21.7499 115.592 21.2059 114.84C20.6619 114.088 20.3819 113.2 20.3659 112.176H23.9659C24.0139 112.864 24.2539 113.408 24.6859 113.808C25.1339 114.208 25.7419 114.408 26.5099 114.408C27.2939 114.408 27.9099 114.224 28.3579 113.856C28.8059 113.472 29.0299 112.976 29.0299 112.368C29.0299 111.872 28.8779 111.464 28.5739 111.144C28.2699 110.824 27.8859 110.576 27.4219 110.4C26.9739 110.208 26.3499 110 25.5499 109.776C24.4619 109.456 23.5739 109.144 22.8859 108.84C22.2139 108.52 21.6299 108.048 21.1339 107.424C20.6539 106.784 20.4139 105.936 20.4139 104.88C20.4139 103.888 20.6619 103.024 21.1579 102.288C21.6539 101.552 22.3499 100.992 23.2459 100.608C24.1419 100.208 25.1659 100.008 26.3179 100.008C28.0459 100.008 29.4459 100.432 30.5179 101.28C31.6059 102.112 32.2059 103.28 32.3179 104.784H28.6219C28.5899 104.208 28.3419 103.736 27.8779 103.368C27.4299 102.984 26.8299 102.792 26.0779 102.792C25.4219 102.792 24.8939 102.96 24.4939 103.296C24.1099 103.632 23.9179 104.12 23.9179 104.76C23.9179 105.208 24.0619 105.584 24.3499 105.888C24.6539 106.176 25.0219 106.416 25.4539 106.608C25.9019 106.784 26.5259 106.992 27.3259 107.232C28.4139 107.552 29.3019 107.872 29.9899 108.192C30.6779 108.512 31.2699 108.992 31.7659 109.632C32.2619 110.272 32.5099 111.112 32.5099 112.152C32.5099 113.048 32.2779 113.88 31.8139 114.648C31.3499 115.416 30.6699 116.032 29.7739 116.496C28.8779 116.944 27.8139 117.168 26.5819 117.168ZM41.9269 117.168C40.7589 117.168 39.7029 116.968 38.7589 116.568C37.8309 116.168 37.0949 115.592 36.5509 114.84C36.0069 114.088 35.7269 113.2 35.7109 112.176H39.3109C39.3589 112.864 39.5989 113.408 40.0309 113.808C40.4789 114.208 41.0869 114.408 41.8549 114.408C42.6389 114.408 43.2549 114.224 43.7029 113.856C44.1509 113.472 44.3749 112.976 44.3749 112.368C44.3749 111.872 44.2229 111.464 43.9189 111.144C43.6149 110.824 43.2309 110.576 42.7669 110.4C42.3189 110.208 41.6949 110 40.8949 109.776C39.8069 109.456 38.9189 109.144 38.2309 108.84C37.5589 108.52 36.9749 108.048 36.4789 107.424C35.9989 106.784 35.7589 105.936 35.7589 104.88C35.7589 103.888 36.0069 103.024 36.5029 102.288C36.9989 101.552 37.6949 100.992 38.5909 100.608C39.4869 100.208 40.5109 100.008 41.6629 100.008C43.3909 100.008 44.7909 100.432 45.8629 101.28C46.9509 102.112 47.5509 103.28 47.6629 104.784H43.9669C43.9349 104.208 43.6869 103.736 43.2229 103.368C42.7749 102.984 42.1749 102.792 41.4229 102.792C40.7669 102.792 40.2389 102.96 39.8389 103.296C39.4549 103.632 39.2629 104.12 39.2629 104.76C39.2629 105.208 39.4069 105.584 39.6949 105.888C39.9989 106.176 40.3669 106.416 40.7989 106.608C41.2469 106.784 41.8709 106.992 42.6709 107.232C43.7589 107.552 44.6469 107.872 45.3349 108.192C46.0229 108.512 46.6149 108.992 47.1109 109.632C47.6069 110.272 47.8549 111.112 47.8549 112.152C47.8549 113.048 47.6229 113.88 47.1589 114.648C46.6949 115.416 46.0149 116.032 45.1189 116.496C44.2229 116.944 43.1589 117.168 41.9269 117.168Z" fill="black"/>
<rect y="145" width="753" height="12" rx="6" fill="#EDECEC"/>
<rect y="145" width="657" height="12" rx="6" fill="#192BC2"/>
<g filter="url(#filter1_d_125_123)">
<circle cx="653" cy="151" r="16" fill="#EDECEC"/>
<circle cx="653" cy="151" r="14.5" stroke="#150578" stroke-width="3"/>
</g>
<path d="M11.928 204.808H5.256L4.152 208H0.624L6.648 191.224H10.56L16.584 208H13.032L11.928 204.808ZM11.016 202.12L8.592 195.112L6.168 202.12H11.016ZM18.6917 201.304C18.6917 199.96 18.9557 198.768 19.4837 197.728C20.0277 196.688 20.7637 195.888 21.6917 195.328C22.6197 194.768 23.6517 194.488 24.7877 194.488C25.6517 194.488 26.4757 194.68 27.2597 195.064C28.0437 195.432 28.6677 195.928 29.1317 196.552V190.24H32.5397V208H29.1317V206.032C28.7157 206.688 28.1317 207.216 27.3797 207.616C26.6277 208.016 25.7557 208.216 24.7637 208.216C23.6437 208.216 22.6197 207.928 21.6917 207.352C20.7637 206.776 20.0277 205.968 19.4837 204.928C18.9557 203.872 18.6917 202.664 18.6917 201.304ZM29.1557 201.352C29.1557 200.536 28.9957 199.84 28.6757 199.264C28.3557 198.672 27.9237 198.224 27.3797 197.92C26.8357 197.6 26.2517 197.44 25.6277 197.44C25.0037 197.44 24.4277 197.592 23.8997 197.896C23.3717 198.2 22.9397 198.648 22.6037 199.24C22.2837 199.816 22.1237 200.504 22.1237 201.304C22.1237 202.104 22.2837 202.808 22.6037 203.416C22.9397 204.008 23.3717 204.464 23.8997 204.784C24.4437 205.104 25.0197 205.264 25.6277 205.264C26.2517 205.264 26.8357 205.112 27.3797 204.808C27.9237 204.488 28.3557 204.04 28.6757 203.464C28.9957 202.872 29.1557 202.168 29.1557 201.352ZM42.4453 208.216C41.1653 208.216 40.0133 207.936 38.9893 207.376C37.9653 206.8 37.1573 205.992 36.5653 204.952C35.9893 203.912 35.7013 202.712 35.7013 201.352C35.7013 199.992 35.9973 198.792 36.5893 197.752C37.1973 196.712 38.0213 195.912 39.0613 195.352C40.1013 194.776 41.2613 194.488 42.5413 194.488C43.8213 194.488 44.9813 194.776 46.0213 195.352C47.0613 195.912 47.8773 196.712 48.4693 197.752C49.0773 198.792 49.3813 199.992 49.3813 201.352C49.3813 202.712 49.0693 203.912 48.4453 204.952C47.8373 205.992 47.0053 206.8 45.9493 207.376C44.9093 207.936 43.7413 208.216 42.4453 208.216ZM42.4453 205.288C43.0533 205.288 43.6213 205.144 44.1493 204.856C44.6933 204.552 45.1253 204.104 45.4453 203.512C45.7653 202.92 45.9253 202.2 45.9253 201.352C45.9253 200.088 45.5893 199.12 44.9173 198.448C44.2613 197.76 43.4533 197.416 42.4933 197.416C41.5333 197.416 40.7253 197.76 40.0693 198.448C39.4293 199.12 39.1093 200.088 39.1093 201.352C39.1093 202.616 39.4213 203.592 40.0453 204.28C40.6853 204.952 41.4853 205.288 42.4453 205.288ZM55.926 196.648C56.358 196.008 56.95 195.488 57.702 195.088C58.47 194.688 59.342 194.488 60.318 194.488C61.454 194.488 62.478 194.768 63.39 195.328C64.318 195.888 65.046 196.688 65.574 197.728C66.118 198.752 66.39 199.944 66.39 201.304C66.39 202.664 66.118 203.872 65.574 204.928C65.046 205.968 64.318 206.776 63.39 207.352C62.478 207.928 61.454 208.216 60.318 208.216C59.326 208.216 58.454 208.024 57.702 207.64C56.966 207.24 56.374 206.728 55.926 206.104V208H52.566V190.24H55.926V196.648ZM62.958 201.304C62.958 200.504 62.79 199.816 62.454 199.24C62.134 198.648 61.702 198.2 61.158 197.896C60.63 197.592 60.054 197.44 59.43 197.44C58.822 197.44 58.246 197.6 57.702 197.92C57.174 198.224 56.742 198.672 56.406 199.264C56.086 199.856 55.926 200.552 55.926 201.352C55.926 202.152 56.086 202.848 56.406 203.44C56.742 204.032 57.174 204.488 57.702 204.808C58.246 205.112 58.822 205.264 59.43 205.264C60.054 205.264 60.63 205.104 61.158 204.784C61.702 204.464 62.134 204.008 62.454 203.416C62.79 202.824 62.958 202.12 62.958 201.304ZM81.9116 201.064C81.9116 201.544 81.8796 201.976 81.8156 202.36H72.0956C72.1756 203.32 72.5116 204.072 73.1036 204.616C73.6956 205.16 74.4236 205.432 75.2876 205.432C76.5356 205.432 77.4236 204.896 77.9516 203.824H81.5756C81.1916 205.104 80.4556 206.16 79.3676 206.992C78.2796 207.808 76.9436 208.216 75.3596 208.216C74.0796 208.216 72.9276 207.936 71.9036 207.376C70.8956 206.8 70.1036 205.992 69.5276 204.952C68.9676 203.912 68.6876 202.712 68.6876 201.352C68.6876 199.976 68.9676 198.768 69.5276 197.728C70.0876 196.688 70.8716 195.888 71.8796 195.328C72.8876 194.768 74.0476 194.488 75.3596 194.488C76.6236 194.488 77.7516 194.76 78.7436 195.304C79.7516 195.848 80.5276 196.624 81.0716 197.632C81.6316 198.624 81.9116 199.768 81.9116 201.064ZM78.4316 200.104C78.4156 199.24 78.1036 198.552 77.4956 198.04C76.8876 197.512 76.1436 197.248 75.2636 197.248C74.4316 197.248 73.7276 197.504 73.1516 198.016C72.5916 198.512 72.2476 199.208 72.1196 200.104H78.4316ZM103.739 196.432C103.739 197.328 103.523 198.168 103.091 198.952C102.675 199.736 102.011 200.368 101.099 200.848C100.203 201.328 99.0669 201.568 97.6909 201.568H94.8829V208H91.5229V191.248H97.6909C98.9869 191.248 100.091 191.472 101.003 191.92C101.915 192.368 102.595 192.984 103.043 193.768C103.507 194.552 103.739 195.44 103.739 196.432ZM97.5469 198.856C98.4749 198.856 99.1629 198.648 99.6109 198.232C100.059 197.8 100.283 197.2 100.283 196.432C100.283 194.8 99.3709 193.984 97.5469 193.984H94.8829V198.856H97.5469ZM114.332 194.512C115.34 194.512 116.236 194.736 117.02 195.184C117.804 195.616 118.412 196.264 118.844 197.128C119.292 197.976 119.516 199 119.516 200.2V208H116.156V200.656C116.156 199.6 115.892 198.792 115.364 198.232C114.836 197.656 114.116 197.368 113.204 197.368C112.276 197.368 111.54 197.656 110.996 198.232C110.468 198.792 110.204 199.6 110.204 200.656V208H106.844V190.24H110.204V196.36C110.636 195.784 111.212 195.336 111.932 195.016C112.652 194.68 113.452 194.512 114.332 194.512ZM129.336 208.216C128.056 208.216 126.904 207.936 125.88 207.376C124.856 206.8 124.048 205.992 123.456 204.952C122.88 203.912 122.592 202.712 122.592 201.352C122.592 199.992 122.888 198.792 123.48 197.752C124.088 196.712 124.912 195.912 125.952 195.352C126.992 194.776 128.152 194.488 129.432 194.488C130.712 194.488 131.872 194.776 132.912 195.352C133.952 195.912 134.768 196.712 135.36 197.752C135.968 198.792 136.272 199.992 136.272 201.352C136.272 202.712 135.96 203.912 135.336 204.952C134.728 205.992 133.896 206.8 132.84 207.376C131.8 207.936 130.632 208.216 129.336 208.216ZM129.336 205.288C129.944 205.288 130.512 205.144 131.04 204.856C131.584 204.552 132.016 204.104 132.336 203.512C132.656 202.92 132.816 202.2 132.816 201.352C132.816 200.088 132.48 199.12 131.808 198.448C131.152 197.76 130.344 197.416 129.384 197.416C128.424 197.416 127.616 197.76 126.96 198.448C126.32 199.12 126 200.088 126 201.352C126 202.616 126.312 203.592 126.936 204.28C127.576 204.952 128.376 205.288 129.336 205.288ZM143.368 197.464V203.896C143.368 204.344 143.472 204.672 143.68 204.88C143.904 205.072 144.272 205.168 144.784 205.168H146.344V208H144.232C141.4 208 139.984 206.624 139.984 203.872V197.464H138.4V194.704H139.984V191.416H143.368V194.704H146.344V197.464H143.368ZM155.385 208.216C154.105 208.216 152.953 207.936 151.929 207.376C150.905 206.8 150.097 205.992 149.505 204.952C148.929 203.912 148.641 202.712 148.641 201.352C148.641 199.992 148.937 198.792 149.529 197.752C150.137 196.712 150.961 195.912 152.001 195.352C153.041 194.776 154.201 194.488 155.481 194.488C156.761 194.488 157.921 194.776 158.961 195.352C160.001 195.912 160.817 196.712 161.409 197.752C162.017 198.792 162.321 199.992 162.321 201.352C162.321 202.712 162.009 203.912 161.385 204.952C160.777 205.992 159.945 206.8 158.889 207.376C157.849 207.936 156.681 208.216 155.385 208.216ZM155.385 205.288C155.993 205.288 156.561 205.144 157.089 204.856C157.633 204.552 158.065 204.104 158.385 203.512C158.705 202.92 158.865 202.2 158.865 201.352C158.865 200.088 158.529 199.12 157.857 198.448C157.201 197.76 156.393 197.416 155.433 197.416C154.473 197.416 153.665 197.76 153.009 198.448C152.369 199.12 152.049 200.088 152.049 201.352C152.049 202.616 152.361 203.592 152.985 204.28C153.625 204.952 154.425 205.288 155.385 205.288ZM170.594 208.216C169.506 208.216 168.53 208.024 167.666 207.64C166.802 207.24 166.114 206.704 165.602 206.032C165.106 205.36 164.834 204.616 164.786 203.8H168.17C168.234 204.312 168.482 204.736 168.914 205.072C169.362 205.408 169.914 205.576 170.57 205.576C171.21 205.576 171.706 205.448 172.058 205.192C172.426 204.936 172.61 204.608 172.61 204.208C172.61 203.776 172.386 203.456 171.938 203.248C171.506 203.024 170.81 202.784 169.85 202.528C168.858 202.288 168.042 202.04 167.402 201.784C166.778 201.528 166.234 201.136 165.77 200.608C165.322 200.08 165.098 199.368 165.098 198.472C165.098 197.736 165.306 197.064 165.722 196.456C166.154 195.848 166.762 195.368 167.546 195.016C168.346 194.664 169.282 194.488 170.354 194.488C171.938 194.488 173.202 194.888 174.146 195.688C175.09 196.472 175.61 197.536 175.706 198.88H172.49C172.442 198.352 172.218 197.936 171.818 197.632C171.434 197.312 170.914 197.152 170.258 197.152C169.65 197.152 169.178 197.264 168.842 197.488C168.522 197.712 168.362 198.024 168.362 198.424C168.362 198.872 168.586 199.216 169.034 199.456C169.482 199.68 170.178 199.912 171.122 200.152C172.082 200.392 172.874 200.64 173.498 200.896C174.122 201.152 174.658 201.552 175.106 202.096C175.57 202.624 175.81 203.328 175.826 204.208C175.826 204.976 175.61 205.664 175.178 206.272C174.762 206.88 174.154 207.36 173.354 207.712C172.57 208.048 171.65 208.216 170.594 208.216ZM186.792 194.512C187.8 194.512 188.696 194.736 189.48 195.184C190.264 195.616 190.872 196.264 191.304 197.128C191.752 197.976 191.976 199 191.976 200.2V208H188.616V200.656C188.616 199.6 188.352 198.792 187.824 198.232C187.296 197.656 186.576 197.368 185.664 197.368C184.736 197.368 184 197.656 183.456 198.232C182.928 198.792 182.664 199.6 182.664 200.656V208H179.304V190.24H182.664V196.36C183.096 195.784 183.672 195.336 184.392 195.016C185.112 194.68 185.912 194.512 186.792 194.512ZM201.795 208.216C200.515 208.216 199.363 207.936 198.339 207.376C197.315 206.8 196.507 205.992 195.915 204.952C195.339 203.912 195.051 202.712 195.051 201.352C195.051 199.992 195.347 198.792 195.939 197.752C196.547 196.712 197.371 195.912 198.411 195.352C199.451 194.776 200.611 194.488 201.891 194.488C203.171 194.488 204.331 194.776 205.371 195.352C206.411 195.912 207.227 196.712 207.819 197.752C208.427 198.792 208.731 199.992 208.731 201.352C208.731 202.712 208.419 203.912 207.795 204.952C207.187 205.992 206.355 206.8 205.299 207.376C204.259 207.936 203.091 208.216 201.795 208.216ZM201.795 205.288C202.403 205.288 202.971 205.144 203.499 204.856C204.043 204.552 204.475 204.104 204.795 203.512C205.115 202.92 205.275 202.2 205.275 201.352C205.275 200.088 204.939 199.12 204.267 198.448C203.611 197.76 202.803 197.416 201.843 197.416C200.883 197.416 200.075 197.76 199.419 198.448C198.779 199.12 198.459 200.088 198.459 201.352C198.459 202.616 198.771 203.592 199.395 204.28C200.035 204.952 200.835 205.288 201.795 205.288ZM215.276 196.624C215.708 196.016 216.3 195.512 217.052 195.112C217.82 194.696 218.692 194.488 219.668 194.488C220.804 194.488 221.828 194.768 222.74 195.328C223.668 195.888 224.396 196.688 224.924 197.728C225.468 198.752 225.74 199.944 225.74 201.304C225.74 202.664 225.468 203.872 224.924 204.928C224.396 205.968 223.668 206.776 222.74 207.352C221.828 207.928 220.804 208.216 219.668 208.216C218.692 208.216 217.828 208.016 217.076 207.616C216.34 207.216 215.74 206.712 215.276 206.104V214.336H211.916V194.704H215.276V196.624ZM222.308 201.304C222.308 200.504 222.14 199.816 221.804 199.24C221.484 198.648 221.052 198.2 220.508 197.896C219.98 197.592 219.404 197.44 218.78 197.44C218.172 197.44 217.596 197.6 217.052 197.92C216.524 198.224 216.092 198.672 215.756 199.264C215.436 199.856 215.276 200.552 215.276 201.352C215.276 202.152 215.436 202.848 215.756 203.44C216.092 204.032 216.524 204.488 217.052 204.808C217.596 205.112 218.172 205.264 218.78 205.264C219.404 205.264 219.98 205.104 220.508 204.784C221.052 204.464 221.484 204.008 221.804 203.416C222.14 202.824 222.308 202.12 222.308 201.304Z" fill="black"/>
<rect y="236" width="753" height="12" rx="6" fill="#EDECEC"/>
<rect y="236" width="721" height="12" rx="6" fill="#192BC2"/>
<g filter="url(#filter2_d_125_123)">
<circle cx="717" cy="242" r="16" fill="#EDECEC"/>
<circle cx="717" cy="242" r="14.5" stroke="#150578" stroke-width="3"/>
</g>
<path d="M11.928 295.808H5.256L4.152 299H0.624L6.648 282.224H10.56L16.584 299H13.032L11.928 295.808ZM11.016 293.12L8.592 286.112L6.168 293.12H11.016ZM18.6917 292.304C18.6917 290.96 18.9557 289.768 19.4837 288.728C20.0277 287.688 20.7637 286.888 21.6917 286.328C22.6197 285.768 23.6517 285.488 24.7877 285.488C25.6517 285.488 26.4757 285.68 27.2597 286.064C28.0437 286.432 28.6677 286.928 29.1317 287.552V281.24H32.5397V299H29.1317V297.032C28.7157 297.688 28.1317 298.216 27.3797 298.616C26.6277 299.016 25.7557 299.216 24.7637 299.216C23.6437 299.216 22.6197 298.928 21.6917 298.352C20.7637 297.776 20.0277 296.968 19.4837 295.928C18.9557 294.872 18.6917 293.664 18.6917 292.304ZM29.1557 292.352C29.1557 291.536 28.9957 290.84 28.6757 290.264C28.3557 289.672 27.9237 289.224 27.3797 288.92C26.8357 288.6 26.2517 288.44 25.6277 288.44C25.0037 288.44 24.4277 288.592 23.8997 288.896C23.3717 289.2 22.9397 289.648 22.6037 290.24C22.2837 290.816 22.1237 291.504 22.1237 292.304C22.1237 293.104 22.2837 293.808 22.6037 294.416C22.9397 295.008 23.3717 295.464 23.8997 295.784C24.4437 296.104 25.0197 296.264 25.6277 296.264C26.2517 296.264 26.8357 296.112 27.3797 295.808C27.9237 295.488 28.3557 295.04 28.6757 294.464C28.9957 293.872 29.1557 293.168 29.1557 292.352ZM42.4453 299.216C41.1653 299.216 40.0133 298.936 38.9893 298.376C37.9653 297.8 37.1573 296.992 36.5653 295.952C35.9893 294.912 35.7013 293.712 35.7013 292.352C35.7013 290.992 35.9973 289.792 36.5893 288.752C37.1973 287.712 38.0213 286.912 39.0613 286.352C40.1013 285.776 41.2613 285.488 42.5413 285.488C43.8213 285.488 44.9813 285.776 46.0213 286.352C47.0613 286.912 47.8773 287.712 48.4693 288.752C49.0773 289.792 49.3813 290.992 49.3813 292.352C49.3813 293.712 49.0693 294.912 48.4453 295.952C47.8373 296.992 47.0053 297.8 45.9493 298.376C44.9093 298.936 43.7413 299.216 42.4453 299.216ZM42.4453 296.288C43.0533 296.288 43.6213 296.144 44.1493 295.856C44.6933 295.552 45.1253 295.104 45.4453 294.512C45.7653 293.92 45.9253 293.2 45.9253 292.352C45.9253 291.088 45.5893 290.12 44.9173 289.448C44.2613 288.76 43.4533 288.416 42.4933 288.416C41.5333 288.416 40.7253 288.76 40.0693 289.448C39.4293 290.12 39.1093 291.088 39.1093 292.352C39.1093 293.616 39.4213 294.592 40.0453 295.28C40.6853 295.952 41.4853 296.288 42.4453 296.288ZM55.926 287.648C56.358 287.008 56.95 286.488 57.702 286.088C58.47 285.688 59.342 285.488 60.318 285.488C61.454 285.488 62.478 285.768 63.39 286.328C64.318 286.888 65.046 287.688 65.574 288.728C66.118 289.752 66.39 290.944 66.39 292.304C66.39 293.664 66.118 294.872 65.574 295.928C65.046 296.968 64.318 297.776 63.39 298.352C62.478 298.928 61.454 299.216 60.318 299.216C59.326 299.216 58.454 299.024 57.702 298.64C56.966 298.24 56.374 297.728 55.926 297.104V299H52.566V281.24H55.926V287.648ZM62.958 292.304C62.958 291.504 62.79 290.816 62.454 290.24C62.134 289.648 61.702 289.2 61.158 288.896C60.63 288.592 60.054 288.44 59.43 288.44C58.822 288.44 58.246 288.6 57.702 288.92C57.174 289.224 56.742 289.672 56.406 290.264C56.086 290.856 55.926 291.552 55.926 292.352C55.926 293.152 56.086 293.848 56.406 294.44C56.742 295.032 57.174 295.488 57.702 295.808C58.246 296.112 58.822 296.264 59.43 296.264C60.054 296.264 60.63 296.104 61.158 295.784C61.702 295.464 62.134 295.008 62.454 294.416C62.79 293.824 62.958 293.12 62.958 292.304ZM81.9116 292.064C81.9116 292.544 81.8796 292.976 81.8156 293.36H72.0956C72.1756 294.32 72.5116 295.072 73.1036 295.616C73.6956 296.16 74.4236 296.432 75.2876 296.432C76.5356 296.432 77.4236 295.896 77.9516 294.824H81.5756C81.1916 296.104 80.4556 297.16 79.3676 297.992C78.2796 298.808 76.9436 299.216 75.3596 299.216C74.0796 299.216 72.9276 298.936 71.9036 298.376C70.8956 297.8 70.1036 296.992 69.5276 295.952C68.9676 294.912 68.6876 293.712 68.6876 292.352C68.6876 290.976 68.9676 289.768 69.5276 288.728C70.0876 287.688 70.8716 286.888 71.8796 286.328C72.8876 285.768 74.0476 285.488 75.3596 285.488C76.6236 285.488 77.7516 285.76 78.7436 286.304C79.7516 286.848 80.5276 287.624 81.0716 288.632C81.6316 289.624 81.9116 290.768 81.9116 292.064ZM78.4316 291.104C78.4156 290.24 78.1036 289.552 77.4956 289.04C76.8876 288.512 76.1436 288.248 75.2636 288.248C74.4316 288.248 73.7276 288.504 73.1516 289.016C72.5916 289.512 72.2476 290.208 72.1196 291.104H78.4316ZM94.8829 282.248V299H91.5229V282.248H94.8829ZM102.283 281.24V299H98.9226V281.24H102.283ZM109.682 281.24V299H106.322V281.24H109.682ZM126.274 285.704V299H122.89V297.32C122.458 297.896 121.89 298.352 121.186 298.688C120.498 299.008 119.746 299.168 118.93 299.168C117.89 299.168 116.97 298.952 116.17 298.52C115.37 298.072 114.738 297.424 114.274 296.576C113.826 295.712 113.602 294.688 113.602 293.504V285.704H116.962V293.024C116.962 294.08 117.226 294.896 117.754 295.472C118.282 296.032 119.002 296.312 119.914 296.312C120.842 296.312 121.57 296.032 122.098 295.472C122.626 294.896 122.89 294.08 122.89 293.024V285.704H126.274ZM135.397 299.216C134.309 299.216 133.333 299.024 132.469 298.64C131.605 298.24 130.917 297.704 130.405 297.032C129.909 296.36 129.637 295.616 129.589 294.8H132.973C133.037 295.312 133.285 295.736 133.717 296.072C134.165 296.408 134.717 296.576 135.373 296.576C136.013 296.576 136.509 296.448 136.861 296.192C137.229 295.936 137.413 295.608 137.413 295.208C137.413 294.776 137.189 294.456 136.741 294.248C136.309 294.024 135.613 293.784 134.653 293.528C133.661 293.288 132.845 293.04 132.205 292.784C131.581 292.528 131.037 292.136 130.573 291.608C130.125 291.08 129.901 290.368 129.901 289.472C129.901 288.736 130.109 288.064 130.525 287.456C130.957 286.848 131.565 286.368 132.349 286.016C133.149 285.664 134.085 285.488 135.157 285.488C136.741 285.488 138.005 285.888 138.949 286.688C139.893 287.472 140.413 288.536 140.509 289.88H137.293C137.245 289.352 137.021 288.936 136.621 288.632C136.237 288.312 135.717 288.152 135.061 288.152C134.453 288.152 133.981 288.264 133.645 288.488C133.325 288.712 133.165 289.024 133.165 289.424C133.165 289.872 133.389 290.216 133.837 290.456C134.285 290.68 134.981 290.912 135.925 291.152C136.885 291.392 137.677 291.64 138.301 291.896C138.925 292.152 139.461 292.552 139.909 293.096C140.373 293.624 140.613 294.328 140.629 295.208C140.629 295.976 140.413 296.664 139.981 297.272C139.565 297.88 138.957 298.36 138.157 298.712C137.373 299.048 136.453 299.216 135.397 299.216ZM148.019 288.464V294.896C148.019 295.344 148.123 295.672 148.331 295.88C148.555 296.072 148.923 296.168 149.435 296.168H150.995V299H148.883C146.051 299 144.635 297.624 144.635 294.872V288.464H143.051V285.704H144.635V282.416H148.019V285.704H150.995V288.464H148.019ZM157.492 287.768C157.924 287.064 158.484 286.512 159.172 286.112C159.876 285.712 160.676 285.512 161.572 285.512V289.04H160.684C159.628 289.04 158.828 289.288 158.284 289.784C157.756 290.28 157.492 291.144 157.492 292.376V299H154.132V285.704H157.492V287.768ZM163.691 292.304C163.691 290.96 163.955 289.768 164.483 288.728C165.027 287.688 165.755 286.888 166.667 286.328C167.595 285.768 168.627 285.488 169.763 285.488C170.755 285.488 171.619 285.688 172.355 286.088C173.107 286.488 173.707 286.992 174.155 287.6V285.704H177.539V299H174.155V297.056C173.723 297.68 173.123 298.2 172.355 298.616C171.603 299.016 170.731 299.216 169.739 299.216C168.619 299.216 167.595 298.928 166.667 298.352C165.755 297.776 165.027 296.968 164.483 295.928C163.955 294.872 163.691 293.664 163.691 292.304ZM174.155 292.352C174.155 291.536 173.995 290.84 173.675 290.264C173.355 289.672 172.923 289.224 172.379 288.92C171.835 288.6 171.251 288.44 170.627 288.44C170.003 288.44 169.427 288.592 168.899 288.896C168.371 289.2 167.939 289.648 167.603 290.24C167.283 290.816 167.123 291.504 167.123 292.304C167.123 293.104 167.283 293.808 167.603 294.416C167.939 295.008 168.371 295.464 168.899 295.784C169.443 296.104 170.019 296.264 170.627 296.264C171.251 296.264 171.835 296.112 172.379 295.808C172.923 295.488 173.355 295.04 173.675 294.464C173.995 293.872 174.155 293.168 174.155 292.352ZM185.453 288.464V294.896C185.453 295.344 185.557 295.672 185.765 295.88C185.989 296.072 186.357 296.168 186.869 296.168H188.429V299H186.317C183.485 299 182.069 297.624 182.069 294.872V288.464H180.485V285.704H182.069V282.416H185.453V285.704H188.429V288.464H185.453ZM197.469 299.216C196.189 299.216 195.037 298.936 194.013 298.376C192.989 297.8 192.181 296.992 191.589 295.952C191.013 294.912 190.725 293.712 190.725 292.352C190.725 290.992 191.021 289.792 191.613 288.752C192.221 287.712 193.045 286.912 194.085 286.352C195.125 285.776 196.285 285.488 197.565 285.488C198.845 285.488 200.005 285.776 201.045 286.352C202.085 286.912 202.901 287.712 203.493 288.752C204.101 289.792 204.405 290.992 204.405 292.352C204.405 293.712 204.093 294.912 203.469 295.952C202.861 296.992 202.029 297.8 200.973 298.376C199.933 298.936 198.765 299.216 197.469 299.216ZM197.469 296.288C198.077 296.288 198.645 296.144 199.173 295.856C199.717 295.552 200.149 295.104 200.469 294.512C200.789 293.92 200.949 293.2 200.949 292.352C200.949 291.088 200.613 290.12 199.941 289.448C199.285 288.76 198.477 288.416 197.517 288.416C196.557 288.416 195.749 288.76 195.093 289.448C194.453 290.12 194.133 291.088 194.133 292.352C194.133 293.616 194.445 294.592 195.069 295.28C195.709 295.952 196.509 296.288 197.469 296.288ZM210.95 287.768C211.382 287.064 211.942 286.512 212.63 286.112C213.334 285.712 214.134 285.512 215.03 285.512V289.04H214.142C213.086 289.04 212.286 289.288 211.742 289.784C211.214 290.28 210.95 291.144 210.95 292.376V299H207.59V285.704H210.95V287.768Z" fill="black"/>
<rect y="327" width="753" height="12" rx="6" fill="#EDECEC"/>
<rect y="327" width="687" height="12" rx="6" fill="#192BC2"/>
<g filter="url(#filter3_d_125_123)">
<circle cx="685" cy="333" r="16" fill="#EDECEC"/>
<circle cx="685" cy="333" r="14.5" stroke="#150578" stroke-width="3"/>
</g>
<path d="M11.928 381.808H5.256L4.152 385H0.624L6.648 368.224H10.56L16.584 385H13.032L11.928 381.808ZM11.016 379.12L8.592 372.112L6.168 379.12H11.016ZM18.6917 378.304C18.6917 376.96 18.9557 375.768 19.4837 374.728C20.0277 373.688 20.7637 372.888 21.6917 372.328C22.6197 371.768 23.6517 371.488 24.7877 371.488C25.6517 371.488 26.4757 371.68 27.2597 372.064C28.0437 372.432 28.6677 372.928 29.1317 373.552V367.24H32.5397V385H29.1317V383.032C28.7157 383.688 28.1317 384.216 27.3797 384.616C26.6277 385.016 25.7557 385.216 24.7637 385.216C23.6437 385.216 22.6197 384.928 21.6917 384.352C20.7637 383.776 20.0277 382.968 19.4837 381.928C18.9557 380.872 18.6917 379.664 18.6917 378.304ZM29.1557 378.352C29.1557 377.536 28.9957 376.84 28.6757 376.264C28.3557 375.672 27.9237 375.224 27.3797 374.92C26.8357 374.6 26.2517 374.44 25.6277 374.44C25.0037 374.44 24.4277 374.592 23.8997 374.896C23.3717 375.2 22.9397 375.648 22.6037 376.24C22.2837 376.816 22.1237 377.504 22.1237 378.304C22.1237 379.104 22.2837 379.808 22.6037 380.416C22.9397 381.008 23.3717 381.464 23.8997 381.784C24.4437 382.104 25.0197 382.264 25.6277 382.264C26.2517 382.264 26.8357 382.112 27.3797 381.808C27.9237 381.488 28.3557 381.04 28.6757 380.464C28.9957 379.872 29.1557 379.168 29.1557 378.352ZM42.4453 385.216C41.1653 385.216 40.0133 384.936 38.9893 384.376C37.9653 383.8 37.1573 382.992 36.5653 381.952C35.9893 380.912 35.7013 379.712 35.7013 378.352C35.7013 376.992 35.9973 375.792 36.5893 374.752C37.1973 373.712 38.0213 372.912 39.0613 372.352C40.1013 371.776 41.2613 371.488 42.5413 371.488C43.8213 371.488 44.9813 371.776 46.0213 372.352C47.0613 372.912 47.8773 373.712 48.4693 374.752C49.0773 375.792 49.3813 376.992 49.3813 378.352C49.3813 379.712 49.0693 380.912 48.4453 381.952C47.8373 382.992 47.0053 383.8 45.9493 384.376C44.9093 384.936 43.7413 385.216 42.4453 385.216ZM42.4453 382.288C43.0533 382.288 43.6213 382.144 44.1493 381.856C44.6933 381.552 45.1253 381.104 45.4453 380.512C45.7653 379.92 45.9253 379.2 45.9253 378.352C45.9253 377.088 45.5893 376.12 44.9173 375.448C44.2613 374.76 43.4533 374.416 42.4933 374.416C41.5333 374.416 40.7253 374.76 40.0693 375.448C39.4293 376.12 39.1093 377.088 39.1093 378.352C39.1093 379.616 39.4213 380.592 40.0453 381.28C40.6853 381.952 41.4853 382.288 42.4453 382.288ZM55.926 373.648C56.358 373.008 56.95 372.488 57.702 372.088C58.47 371.688 59.342 371.488 60.318 371.488C61.454 371.488 62.478 371.768 63.39 372.328C64.318 372.888 65.046 373.688 65.574 374.728C66.118 375.752 66.39 376.944 66.39 378.304C66.39 379.664 66.118 380.872 65.574 381.928C65.046 382.968 64.318 383.776 63.39 384.352C62.478 384.928 61.454 385.216 60.318 385.216C59.326 385.216 58.454 385.024 57.702 384.64C56.966 384.24 56.374 383.728 55.926 383.104V385H52.566V367.24H55.926V373.648ZM62.958 378.304C62.958 377.504 62.79 376.816 62.454 376.24C62.134 375.648 61.702 375.2 61.158 374.896C60.63 374.592 60.054 374.44 59.43 374.44C58.822 374.44 58.246 374.6 57.702 374.92C57.174 375.224 56.742 375.672 56.406 376.264C56.086 376.856 55.926 377.552 55.926 378.352C55.926 379.152 56.086 379.848 56.406 380.44C56.742 381.032 57.174 381.488 57.702 381.808C58.246 382.112 58.822 382.264 59.43 382.264C60.054 382.264 60.63 382.104 61.158 381.784C61.702 381.464 62.134 381.008 62.454 380.416C62.79 379.824 62.958 379.12 62.958 378.304ZM81.9116 378.064C81.9116 378.544 81.8796 378.976 81.8156 379.36H72.0956C72.1756 380.32 72.5116 381.072 73.1036 381.616C73.6956 382.16 74.4236 382.432 75.2876 382.432C76.5356 382.432 77.4236 381.896 77.9516 380.824H81.5756C81.1916 382.104 80.4556 383.16 79.3676 383.992C78.2796 384.808 76.9436 385.216 75.3596 385.216C74.0796 385.216 72.9276 384.936 71.9036 384.376C70.8956 383.8 70.1036 382.992 69.5276 381.952C68.9676 380.912 68.6876 379.712 68.6876 378.352C68.6876 376.976 68.9676 375.768 69.5276 374.728C70.0876 373.688 70.8716 372.888 71.8796 372.328C72.8876 371.768 74.0476 371.488 75.3596 371.488C76.6236 371.488 77.7516 371.76 78.7436 372.304C79.7516 372.848 80.5276 373.624 81.0716 374.632C81.6316 375.624 81.9116 376.768 81.9116 378.064ZM78.4316 377.104C78.4156 376.24 78.1036 375.552 77.4956 375.04C76.8876 374.512 76.1436 374.248 75.2636 374.248C74.4316 374.248 73.7276 374.504 73.1516 375.016C72.5916 375.512 72.2476 376.208 72.1196 377.104H78.4316ZM103.739 373.432C103.739 374.328 103.523 375.168 103.091 375.952C102.675 376.736 102.011 377.368 101.099 377.848C100.203 378.328 99.0669 378.568 97.6909 378.568H94.8829V385H91.5229V368.248H97.6909C98.9869 368.248 100.091 368.472 101.003 368.92C101.915 369.368 102.595 369.984 103.043 370.768C103.507 371.552 103.739 372.44 103.739 373.432ZM97.5469 375.856C98.4749 375.856 99.1629 375.648 99.6109 375.232C100.059 374.8 100.283 374.2 100.283 373.432C100.283 371.8 99.3709 370.984 97.5469 370.984H94.8829V375.856H97.5469ZM110.204 373.768C110.636 373.064 111.196 372.512 111.884 372.112C112.588 371.712 113.388 371.512 114.284 371.512V375.04H113.396C112.34 375.04 111.54 375.288 110.996 375.784C110.468 376.28 110.204 377.144 110.204 378.376V385H106.844V371.704H110.204V373.768ZM129.628 378.064C129.628 378.544 129.596 378.976 129.532 379.36H119.812C119.892 380.32 120.228 381.072 120.82 381.616C121.412 382.16 122.14 382.432 123.004 382.432C124.252 382.432 125.14 381.896 125.668 380.824H129.292C128.908 382.104 128.172 383.16 127.084 383.992C125.996 384.808 124.66 385.216 123.076 385.216C121.796 385.216 120.644 384.936 119.62 384.376C118.612 383.8 117.82 382.992 117.244 381.952C116.684 380.912 116.404 379.712 116.404 378.352C116.404 376.976 116.684 375.768 117.244 374.728C117.804 373.688 118.588 372.888 119.596 372.328C120.604 371.768 121.764 371.488 123.076 371.488C124.34 371.488 125.468 371.76 126.46 372.304C127.468 372.848 128.244 373.624 128.788 374.632C129.348 375.624 129.628 376.768 129.628 378.064ZM126.148 377.104C126.132 376.24 125.82 375.552 125.212 375.04C124.604 374.512 123.86 374.248 122.98 374.248C122.148 374.248 121.444 374.504 120.868 375.016C120.308 375.512 119.964 376.208 119.836 377.104H126.148ZM149.312 371.512C150.944 371.512 152.256 372.016 153.248 373.024C154.256 374.016 154.76 375.408 154.76 377.2V385H151.4V377.656C151.4 376.616 151.136 375.824 150.608 375.28C150.08 374.72 149.36 374.44 148.448 374.44C147.536 374.44 146.808 374.72 146.264 375.28C145.736 375.824 145.472 376.616 145.472 377.656V385H142.112V377.656C142.112 376.616 141.848 375.824 141.32 375.28C140.792 374.72 140.072 374.44 139.16 374.44C138.232 374.44 137.496 374.72 136.952 375.28C136.424 375.824 136.16 376.616 136.16 377.656V385H132.8V371.704H136.16V373.312C136.592 372.752 137.144 372.312 137.816 371.992C138.504 371.672 139.256 371.512 140.072 371.512C141.112 371.512 142.04 371.736 142.856 372.184C143.672 372.616 144.304 373.24 144.752 374.056C145.184 373.288 145.808 372.672 146.624 372.208C147.456 371.744 148.352 371.512 149.312 371.512ZM160.372 370.12C159.78 370.12 159.284 369.936 158.884 369.568C158.5 369.184 158.308 368.712 158.308 368.152C158.308 367.592 158.5 367.128 158.884 366.76C159.284 366.376 159.78 366.184 160.372 366.184C160.964 366.184 161.452 366.376 161.836 366.76C162.236 367.128 162.436 367.592 162.436 368.152C162.436 368.712 162.236 369.184 161.836 369.568C161.452 369.936 160.964 370.12 160.372 370.12ZM162.028 371.704V385H158.668V371.704H162.028ZM178.428 378.064C178.428 378.544 178.396 378.976 178.332 379.36H168.612C168.692 380.32 169.028 381.072 169.62 381.616C170.212 382.16 170.94 382.432 171.804 382.432C173.052 382.432 173.94 381.896 174.468 380.824H178.092C177.708 382.104 176.972 383.16 175.884 383.992C174.796 384.808 173.46 385.216 171.876 385.216C170.596 385.216 169.444 384.936 168.42 384.376C167.412 383.8 166.62 382.992 166.044 381.952C165.484 380.912 165.204 379.712 165.204 378.352C165.204 376.976 165.484 375.768 166.044 374.728C166.604 373.688 167.388 372.888 168.396 372.328C169.404 371.768 170.564 371.488 171.876 371.488C173.14 371.488 174.268 371.76 175.26 372.304C176.268 372.848 177.044 373.624 177.588 374.632C178.148 375.624 178.428 376.768 178.428 378.064ZM174.948 377.104C174.932 376.24 174.62 375.552 174.012 375.04C173.404 374.512 172.66 374.248 171.78 374.248C170.948 374.248 170.244 374.504 169.668 375.016C169.108 375.512 168.764 376.208 168.636 377.104H174.948ZM184.961 373.768C185.393 373.064 185.953 372.512 186.641 372.112C187.345 371.712 188.145 371.512 189.041 371.512V375.04H188.153C187.097 375.04 186.297 375.288 185.753 375.784C185.225 376.28 184.961 377.144 184.961 378.376V385H181.601V371.704H184.961V373.768ZM204.384 378.064C204.384 378.544 204.352 378.976 204.288 379.36H194.568C194.648 380.32 194.984 381.072 195.576 381.616C196.168 382.16 196.896 382.432 197.76 382.432C199.008 382.432 199.896 381.896 200.424 380.824H204.048C203.664 382.104 202.928 383.16 201.84 383.992C200.752 384.808 199.416 385.216 197.832 385.216C196.552 385.216 195.4 384.936 194.376 384.376C193.368 383.8 192.576 382.992 192 381.952C191.44 380.912 191.16 379.712 191.16 378.352C191.16 376.976 191.44 375.768 192 374.728C192.56 373.688 193.344 372.888 194.352 372.328C195.36 371.768 196.52 371.488 197.832 371.488C199.096 371.488 200.224 371.76 201.216 372.304C202.224 372.848 203 373.624 203.544 374.632C204.104 375.624 204.384 376.768 204.384 378.064ZM200.904 377.104C200.888 376.24 200.576 375.552 199.968 375.04C199.36 374.512 198.616 374.248 197.736 374.248C196.904 374.248 196.2 374.504 195.624 375.016C195.064 375.512 194.72 376.208 194.592 377.104H200.904ZM226.211 373.432C226.211 374.328 225.995 375.168 225.563 375.952C225.147 376.736 224.483 377.368 223.571 377.848C222.675 378.328 221.539 378.568 220.163 378.568H217.355V385H213.995V368.248H220.163C221.459 368.248 222.563 368.472 223.475 368.92C224.387 369.368 225.067 369.984 225.515 370.768C225.979 371.552 226.211 372.44 226.211 373.432ZM220.019 375.856C220.947 375.856 221.635 375.648 222.083 375.232C222.531 374.8 222.755 374.2 222.755 373.432C222.755 371.8 221.843 370.984 220.019 370.984H217.355V375.856H220.019ZM232.677 373.768C233.109 373.064 233.669 372.512 234.357 372.112C235.061 371.712 235.861 371.512 236.757 371.512V375.04H235.869C234.813 375.04 234.013 375.288 233.469 375.784C232.941 376.28 232.677 377.144 232.677 378.376V385H229.317V371.704H232.677V373.768ZM245.644 385.216C244.364 385.216 243.212 384.936 242.188 384.376C241.164 383.8 240.356 382.992 239.764 381.952C239.188 380.912 238.9 379.712 238.9 378.352C238.9 376.992 239.196 375.792 239.788 374.752C240.396 373.712 241.22 372.912 242.26 372.352C243.3 371.776 244.46 371.488 245.74 371.488C247.02 371.488 248.18 371.776 249.22 372.352C250.26 372.912 251.076 373.712 251.668 374.752C252.276 375.792 252.58 376.992 252.58 378.352C252.58 379.712 252.268 380.912 251.644 381.952C251.036 382.992 250.204 383.8 249.148 384.376C248.108 384.936 246.94 385.216 245.644 385.216ZM245.644 382.288C246.252 382.288 246.82 382.144 247.348 381.856C247.892 381.552 248.324 381.104 248.644 380.512C248.964 379.92 249.124 379.2 249.124 378.352C249.124 377.088 248.788 376.12 248.116 375.448C247.46 374.76 246.652 374.416 245.692 374.416C244.732 374.416 243.924 374.76 243.268 375.448C242.628 376.12 242.308 377.088 242.308 378.352C242.308 379.616 242.62 380.592 243.244 381.28C243.884 381.952 244.684 382.288 245.644 382.288Z" fill="black"/>
<rect y="413" width="753" height="12" rx="6" fill="#EDECEC"/>
<rect y="413" width="687" height="12" rx="6" fill="#192BC2"/>
<g filter="url(#filter4_d_125_123)">
<circle cx="685" cy="419" r="16" fill="#EDECEC"/>
<circle cx="685" cy="419" r="14.5" stroke="#150578" stroke-width="3"/>
</g>
<path d="M11.928 472.808H5.256L4.152 476H0.624L6.648 459.224H10.56L16.584 476H13.032L11.928 472.808ZM11.016 470.12L8.592 463.112L6.168 470.12H11.016ZM18.6917 469.304C18.6917 467.96 18.9557 466.768 19.4837 465.728C20.0277 464.688 20.7637 463.888 21.6917 463.328C22.6197 462.768 23.6517 462.488 24.7877 462.488C25.6517 462.488 26.4757 462.68 27.2597 463.064C28.0437 463.432 28.6677 463.928 29.1317 464.552V458.24H32.5397V476H29.1317V474.032C28.7157 474.688 28.1317 475.216 27.3797 475.616C26.6277 476.016 25.7557 476.216 24.7637 476.216C23.6437 476.216 22.6197 475.928 21.6917 475.352C20.7637 474.776 20.0277 473.968 19.4837 472.928C18.9557 471.872 18.6917 470.664 18.6917 469.304ZM29.1557 469.352C29.1557 468.536 28.9957 467.84 28.6757 467.264C28.3557 466.672 27.9237 466.224 27.3797 465.92C26.8357 465.6 26.2517 465.44 25.6277 465.44C25.0037 465.44 24.4277 465.592 23.8997 465.896C23.3717 466.2 22.9397 466.648 22.6037 467.24C22.2837 467.816 22.1237 468.504 22.1237 469.304C22.1237 470.104 22.2837 470.808 22.6037 471.416C22.9397 472.008 23.3717 472.464 23.8997 472.784C24.4437 473.104 25.0197 473.264 25.6277 473.264C26.2517 473.264 26.8357 473.112 27.3797 472.808C27.9237 472.488 28.3557 472.04 28.6757 471.464C28.9957 470.872 29.1557 470.168 29.1557 469.352ZM42.4453 476.216C41.1653 476.216 40.0133 475.936 38.9893 475.376C37.9653 474.8 37.1573 473.992 36.5653 472.952C35.9893 471.912 35.7013 470.712 35.7013 469.352C35.7013 467.992 35.9973 466.792 36.5893 465.752C37.1973 464.712 38.0213 463.912 39.0613 463.352C40.1013 462.776 41.2613 462.488 42.5413 462.488C43.8213 462.488 44.9813 462.776 46.0213 463.352C47.0613 463.912 47.8773 464.712 48.4693 465.752C49.0773 466.792 49.3813 467.992 49.3813 469.352C49.3813 470.712 49.0693 471.912 48.4453 472.952C47.8373 473.992 47.0053 474.8 45.9493 475.376C44.9093 475.936 43.7413 476.216 42.4453 476.216ZM42.4453 473.288C43.0533 473.288 43.6213 473.144 44.1493 472.856C44.6933 472.552 45.1253 472.104 45.4453 471.512C45.7653 470.92 45.9253 470.2 45.9253 469.352C45.9253 468.088 45.5893 467.12 44.9173 466.448C44.2613 465.76 43.4533 465.416 42.4933 465.416C41.5333 465.416 40.7253 465.76 40.0693 466.448C39.4293 467.12 39.1093 468.088 39.1093 469.352C39.1093 470.616 39.4213 471.592 40.0453 472.28C40.6853 472.952 41.4853 473.288 42.4453 473.288ZM55.926 464.648C56.358 464.008 56.95 463.488 57.702 463.088C58.47 462.688 59.342 462.488 60.318 462.488C61.454 462.488 62.478 462.768 63.39 463.328C64.318 463.888 65.046 464.688 65.574 465.728C66.118 466.752 66.39 467.944 66.39 469.304C66.39 470.664 66.118 471.872 65.574 472.928C65.046 473.968 64.318 474.776 63.39 475.352C62.478 475.928 61.454 476.216 60.318 476.216C59.326 476.216 58.454 476.024 57.702 475.64C56.966 475.24 56.374 474.728 55.926 474.104V476H52.566V458.24H55.926V464.648ZM62.958 469.304C62.958 468.504 62.79 467.816 62.454 467.24C62.134 466.648 61.702 466.2 61.158 465.896C60.63 465.592 60.054 465.44 59.43 465.44C58.822 465.44 58.246 465.6 57.702 465.92C57.174 466.224 56.742 466.672 56.406 467.264C56.086 467.856 55.926 468.552 55.926 469.352C55.926 470.152 56.086 470.848 56.406 471.44C56.742 472.032 57.174 472.488 57.702 472.808C58.246 473.112 58.822 473.264 59.43 473.264C60.054 473.264 60.63 473.104 61.158 472.784C61.702 472.464 62.134 472.008 62.454 471.416C62.79 470.824 62.958 470.12 62.958 469.304ZM81.9116 469.064C81.9116 469.544 81.8796 469.976 81.8156 470.36H72.0956C72.1756 471.32 72.5116 472.072 73.1036 472.616C73.6956 473.16 74.4236 473.432 75.2876 473.432C76.5356 473.432 77.4236 472.896 77.9516 471.824H81.5756C81.1916 473.104 80.4556 474.16 79.3676 474.992C78.2796 475.808 76.9436 476.216 75.3596 476.216C74.0796 476.216 72.9276 475.936 71.9036 475.376C70.8956 474.8 70.1036 473.992 69.5276 472.952C68.9676 471.912 68.6876 470.712 68.6876 469.352C68.6876 467.976 68.9676 466.768 69.5276 465.728C70.0876 464.688 70.8716 463.888 71.8796 463.328C72.8876 462.768 74.0476 462.488 75.3596 462.488C76.6236 462.488 77.7516 462.76 78.7436 463.304C79.7516 463.848 80.5276 464.624 81.0716 465.632C81.6316 466.624 81.9116 467.768 81.9116 469.064ZM78.4316 468.104C78.4156 467.24 78.1036 466.552 77.4956 466.04C76.8876 465.512 76.1436 465.248 75.2636 465.248C74.4316 465.248 73.7276 465.504 73.1516 466.016C72.5916 466.512 72.2476 467.208 72.1196 468.104H78.4316ZM101.795 472.808H95.1229L94.0189 476H90.4909L96.5149 459.224H100.427L106.451 476H102.899L101.795 472.808ZM100.883 470.12L98.4589 463.112L96.0349 470.12H100.883ZM115.519 465.464H113.191V476H109.783V465.464H108.271V462.704H109.783V462.032C109.783 460.4 110.247 459.2 111.175 458.432C112.103 457.664 113.503 457.304 115.375 457.352V460.184C114.559 460.168 113.991 460.304 113.671 460.592C113.351 460.88 113.191 461.4 113.191 462.152V462.704H115.519V465.464ZM122.328 465.464V471.896C122.328 472.344 122.432 472.672 122.64 472.88C122.864 473.072 123.232 473.168 123.744 473.168H125.304V476H123.192C120.36 476 118.944 474.624 118.944 471.872V465.464H117.36V462.704H118.944V459.416H122.328V462.704H125.304V465.464H122.328ZM140.801 469.064C140.801 469.544 140.769 469.976 140.705 470.36H130.985C131.065 471.32 131.401 472.072 131.993 472.616C132.585 473.16 133.313 473.432 134.177 473.432C135.425 473.432 136.313 472.896 136.841 471.824H140.465C140.081 473.104 139.345 474.16 138.257 474.992C137.169 475.808 135.833 476.216 134.249 476.216C132.969 476.216 131.817 475.936 130.793 475.376C129.785 474.8 128.993 473.992 128.417 472.952C127.857 471.912 127.577 470.712 127.577 469.352C127.577 467.976 127.857 466.768 128.417 465.728C128.977 464.688 129.761 463.888 130.769 463.328C131.777 462.768 132.937 462.488 134.249 462.488C135.513 462.488 136.641 462.76 137.633 463.304C138.641 463.848 139.417 464.624 139.961 465.632C140.521 466.624 140.801 467.768 140.801 469.064ZM137.321 468.104C137.305 467.24 136.993 466.552 136.385 466.04C135.777 465.512 135.033 465.248 134.153 465.248C133.321 465.248 132.617 465.504 132.041 466.016C131.481 466.512 131.137 467.208 131.009 468.104H137.321ZM147.333 464.768C147.765 464.064 148.325 463.512 149.013 463.112C149.717 462.712 150.517 462.512 151.413 462.512V466.04H150.525C149.469 466.04 148.669 466.288 148.125 466.784C147.597 467.28 147.333 468.144 147.333 469.376V476H143.973V462.704H147.333V464.768ZM164.195 461.96V466.16H169.835V468.824H164.195V473.264H170.555V476H160.835V459.224H170.555V461.96H164.195ZM180.425 465.464H178.097V476H174.689V465.464H173.177V462.704H174.689V462.032C174.689 460.4 175.153 459.2 176.081 458.432C177.009 457.664 178.409 457.304 180.281 457.352V460.184C179.465 460.168 178.897 460.304 178.577 460.592C178.257 460.88 178.097 461.4 178.097 462.152V462.704H180.425V465.464ZM189.418 465.464H187.09V476H183.682V465.464H182.17V462.704H183.682V462.032C183.682 460.4 184.146 459.2 185.074 458.432C186.002 457.664 187.402 457.304 189.274 457.352V460.184C188.458 460.168 187.89 460.304 187.57 460.592C187.25 460.88 187.09 461.4 187.09 462.152V462.704H189.418V465.464ZM204.675 469.064C204.675 469.544 204.643 469.976 204.579 470.36H194.859C194.939 471.32 195.275 472.072 195.867 472.616C196.459 473.16 197.187 473.432 198.051 473.432C199.299 473.432 200.187 472.896 200.715 471.824H204.339C203.955 473.104 203.219 474.16 202.131 474.992C201.043 475.808 199.707 476.216 198.123 476.216C196.843 476.216 195.691 475.936 194.667 475.376C193.659 474.8 192.867 473.992 192.291 472.952C191.731 471.912 191.451 470.712 191.451 469.352C191.451 467.976 191.731 466.768 192.291 465.728C192.851 464.688 193.635 463.888 194.643 463.328C195.651 462.768 196.811 462.488 198.123 462.488C199.387 462.488 200.515 462.76 201.507 463.304C202.515 463.848 203.291 464.624 203.835 465.632C204.395 466.624 204.675 467.768 204.675 469.064ZM201.195 468.104C201.179 467.24 200.867 466.552 200.259 466.04C199.651 465.512 198.907 465.248 198.027 465.248C197.195 465.248 196.491 465.504 195.915 466.016C195.355 466.512 195.011 467.208 194.883 468.104H201.195ZM206.984 469.352C206.984 467.976 207.264 466.776 207.824 465.752C208.384 464.712 209.16 463.912 210.152 463.352C211.144 462.776 212.28 462.488 213.56 462.488C215.208 462.488 216.568 462.904 217.64 463.736C218.728 464.552 219.456 465.704 219.824 467.192H216.2C216.008 466.616 215.68 466.168 215.216 465.848C214.768 465.512 214.208 465.344 213.536 465.344C212.576 465.344 211.816 465.696 211.256 466.4C210.696 467.088 210.416 468.072 210.416 469.352C210.416 470.616 210.696 471.6 211.256 472.304C211.816 472.992 212.576 473.336 213.536 473.336C214.896 473.336 215.784 472.728 216.2 471.512H219.824C219.456 472.952 218.728 474.096 217.64 474.944C216.552 475.792 215.192 476.216 213.56 476.216C212.28 476.216 211.144 475.936 210.152 475.376C209.16 474.8 208.384 474 207.824 472.976C207.264 471.936 206.984 470.728 206.984 469.352ZM226.917 465.464V471.896C226.917 472.344 227.021 472.672 227.229 472.88C227.453 473.072 227.821 473.168 228.333 473.168H229.893V476H227.781C224.949 476 223.533 474.624 223.533 471.872V465.464H221.949V462.704H223.533V459.416H226.917V462.704H229.893V465.464H226.917ZM238.118 476.216C237.03 476.216 236.054 476.024 235.19 475.64C234.326 475.24 233.638 474.704 233.126 474.032C232.63 473.36 232.358 472.616 232.31 471.8H235.694C235.758 472.312 236.006 472.736 236.438 473.072C236.886 473.408 237.438 473.576 238.094 473.576C238.734 473.576 239.23 473.448 239.582 473.192C239.95 472.936 240.134 472.608 240.134 472.208C240.134 471.776 239.91 471.456 239.462 471.248C239.03 471.024 238.334 470.784 237.374 470.528C236.382 470.288 235.566 470.04 234.926 469.784C234.302 469.528 233.758 469.136 233.294 468.608C232.846 468.08 232.622 467.368 232.622 466.472C232.622 465.736 232.83 465.064 233.246 464.456C233.678 463.848 234.286 463.368 235.07 463.016C235.87 462.664 236.806 462.488 237.878 462.488C239.462 462.488 240.726 462.888 241.67 463.688C242.614 464.472 243.134 465.536 243.23 466.88H240.014C239.966 466.352 239.742 465.936 239.342 465.632C238.958 465.312 238.438 465.152 237.782 465.152C237.174 465.152 236.702 465.264 236.366 465.488C236.046 465.712 235.886 466.024 235.886 466.424C235.886 466.872 236.11 467.216 236.558 467.456C237.006 467.68 237.702 467.912 238.646 468.152C239.606 468.392 240.398 468.64 241.022 468.896C241.646 469.152 242.182 469.552 242.63 470.096C243.094 470.624 243.334 471.328 243.35 472.208C243.35 472.976 243.134 473.664 242.702 474.272C242.286 474.88 241.678 475.36 240.878 475.712C240.094 476.048 239.174 476.216 238.118 476.216Z" fill="black"/>
<rect y="504" width="753" height="12" rx="6" fill="#EDECEC"/>
<rect y="504" width="537" height="12" rx="6" fill="#192BC2"/>
<g filter="url(#filter5_d_125_123)">
<circle cx="537" cy="510" r="16" fill="#EDECEC"/>
<circle cx="537" cy="510" r="14.5" stroke="#150578" stroke-width="3"/>
</g>
<path d="M24.048 550.248L19.368 567H15.408L12.264 555.072L8.976 567L5.04 567.024L0.528 550.248H4.128L7.08 563.256L10.488 550.248H14.232L17.448 563.184L20.424 550.248H24.048ZM32.8659 567.216C31.5859 567.216 30.4339 566.936 29.4099 566.376C28.3859 565.8 27.5779 564.992 26.9859 563.952C26.4099 562.912 26.1219 561.712 26.1219 560.352C26.1219 558.992 26.4179 557.792 27.0099 556.752C27.6179 555.712 28.4419 554.912 29.4819 554.352C30.5219 553.776 31.6819 553.488 32.9619 553.488C34.2419 553.488 35.4019 553.776 36.4419 554.352C37.4819 554.912 38.2979 555.712 38.8899 556.752C39.4979 557.792 39.8019 558.992 39.8019 560.352C39.8019 561.712 39.4899 562.912 38.8659 563.952C38.2579 564.992 37.4259 565.8 36.3699 566.376C35.3299 566.936 34.1619 567.216 32.8659 567.216ZM32.8659 564.288C33.4739 564.288 34.0419 564.144 34.5699 563.856C35.1139 563.552 35.5459 563.104 35.8659 562.512C36.1859 561.92 36.3459 561.2 36.3459 560.352C36.3459 559.088 36.0099 558.12 35.3379 557.448C34.6819 556.76 33.8739 556.416 32.9139 556.416C31.9539 556.416 31.1459 556.76 30.4899 557.448C29.8499 558.12 29.5299 559.088 29.5299 560.352C29.5299 561.616 29.8419 562.592 30.4659 563.28C31.1059 563.952 31.9059 564.288 32.8659 564.288ZM46.3466 555.768C46.7786 555.064 47.3386 554.512 48.0266 554.112C48.7306 553.712 49.5306 553.512 50.4266 553.512V557.04H49.5386C48.4826 557.04 47.6826 557.288 47.1386 557.784C46.6106 558.28 46.3466 559.144 46.3466 560.376V567H42.9866V553.704H46.3466V555.768ZM52.5457 560.304C52.5457 558.96 52.8097 557.768 53.3377 556.728C53.8817 555.688 54.6177 554.888 55.5458 554.328C56.4737 553.768 57.5057 553.488 58.6417 553.488C59.5058 553.488 60.3298 553.68 61.1138 554.064C61.8978 554.432 62.5218 554.928 62.9858 555.552V549.24H66.3938V567H62.9858V565.032C62.5698 565.688 61.9858 566.216 61.2338 566.616C60.4818 567.016 59.6098 567.216 58.6178 567.216C57.4978 567.216 56.4737 566.928 55.5458 566.352C54.6177 565.776 53.8817 564.968 53.3377 563.928C52.8097 562.872 52.5457 561.664 52.5457 560.304ZM63.0098 560.352C63.0098 559.536 62.8498 558.84 62.5298 558.264C62.2098 557.672 61.7778 557.224 61.2338 556.92C60.6898 556.6 60.1058 556.44 59.4818 556.44C58.8578 556.44 58.2818 556.592 57.7537 556.896C57.2257 557.2 56.7938 557.648 56.4578 558.24C56.1378 558.816 55.9778 559.504 55.9778 560.304C55.9778 561.104 56.1378 561.808 56.4578 562.416C56.7938 563.008 57.2257 563.464 57.7537 563.784C58.2977 564.104 58.8738 564.264 59.4818 564.264C60.1058 564.264 60.6898 564.112 61.2338 563.808C61.7778 563.488 62.2098 563.04 62.5298 562.464C62.8498 561.872 63.0098 561.168 63.0098 560.352ZM82.6114 555.432C82.6114 556.328 82.3954 557.168 81.9634 557.952C81.5474 558.736 80.8834 559.368 79.9714 559.848C79.0754 560.328 77.9394 560.568 76.5634 560.568H73.7554V567H70.3954V550.248H76.5634C77.8594 550.248 78.9634 550.472 79.8754 550.92C80.7874 551.368 81.4674 551.984 81.9154 552.768C82.3794 553.552 82.6114 554.44 82.6114 555.432ZM76.4194 557.856C77.3474 557.856 78.0354 557.648 78.4834 557.232C78.9314 556.8 79.1554 556.2 79.1554 555.432C79.1554 553.8 78.2434 552.984 76.4194 552.984H73.7554V557.856H76.4194ZM89.0769 555.768C89.5089 555.064 90.0689 554.512 90.7569 554.112C91.4609 553.712 92.2609 553.512 93.1569 553.512V557.04H92.2689C91.2129 557.04 90.4129 557.288 89.8689 557.784C89.3409 558.28 89.0769 559.144 89.0769 560.376V567H85.7169V553.704H89.0769V555.768ZM108.5 560.064C108.5 560.544 108.468 560.976 108.404 561.36H98.6841C98.7641 562.32 99.1001 563.072 99.6921 563.616C100.284 564.16 101.012 564.432 101.876 564.432C103.124 564.432 104.012 563.896 104.54 562.824H108.164C107.78 564.104 107.044 565.16 105.956 565.992C104.868 566.808 103.532 567.216 101.948 567.216C100.668 567.216 99.5161 566.936 98.4921 566.376C97.4841 565.8 96.6921 564.992 96.1161 563.952C95.5561 562.912 95.2761 561.712 95.2761 560.352C95.2761 558.976 95.5561 557.768 96.1161 556.728C96.6761 555.688 97.4601 554.888 98.4681 554.328C99.4761 553.768 100.636 553.488 101.948 553.488C103.212 553.488 104.34 553.76 105.332 554.304C106.34 554.848 107.116 555.624 107.66 556.632C108.22 557.624 108.5 558.768 108.5 560.064ZM105.02 559.104C105.004 558.24 104.692 557.552 104.084 557.04C103.476 556.512 102.732 556.248 101.852 556.248C101.02 556.248 100.316 556.504 99.7401 557.016C99.1801 557.512 98.8361 558.208 98.7081 559.104H105.02ZM116.761 567.216C115.673 567.216 114.697 567.024 113.833 566.64C112.969 566.24 112.281 565.704 111.769 565.032C111.273 564.36 111.001 563.616 110.953 562.8H114.337C114.401 563.312 114.649 563.736 115.081 564.072C115.529 564.408 116.081 564.576 116.737 564.576C117.377 564.576 117.873 564.448 118.225 564.192C118.593 563.936 118.777 563.608 118.777 563.208C118.777 562.776 118.553 562.456 118.105 562.248C117.673 562.024 116.977 561.784 116.017 561.528C115.025 561.288 114.209 561.04 113.569 560.784C112.945 560.528 112.401 560.136 111.937 559.608C111.489 559.08 111.265 558.368 111.265 557.472C111.265 556.736 111.473 556.064 111.889 555.456C112.321 554.848 112.929 554.368 113.713 554.016C114.513 553.664 115.449 553.488 116.521 553.488C118.105 553.488 119.369 553.888 120.313 554.688C121.257 555.472 121.777 556.536 121.873 557.88H118.657C118.609 557.352 118.385 556.936 117.985 556.632C117.601 556.312 117.081 556.152 116.425 556.152C115.817 556.152 115.345 556.264 115.009 556.488C114.689 556.712 114.529 557.024 114.529 557.424C114.529 557.872 114.753 558.216 115.201 558.456C115.649 558.68 116.345 558.912 117.289 559.152C118.249 559.392 119.041 559.64 119.665 559.896C120.289 560.152 120.825 560.552 121.273 561.096C121.737 561.624 121.977 562.328 121.993 563.208C121.993 563.976 121.777 564.664 121.345 565.272C120.929 565.88 120.321 566.36 119.521 566.712C118.737 567.048 117.817 567.216 116.761 567.216ZM130.559 567.216C129.471 567.216 128.495 567.024 127.631 566.64C126.767 566.24 126.079 565.704 125.567 565.032C125.071 564.36 124.799 563.616 124.751 562.8H128.135C128.199 563.312 128.447 563.736 128.879 564.072C129.327 564.408 129.879 564.576 130.535 564.576C131.175 564.576 131.671 564.448 132.023 564.192C132.391 563.936 132.575 563.608 132.575 563.208C132.575 562.776 132.351 562.456 131.903 562.248C131.471 562.024 130.775 561.784 129.815 561.528C128.823 561.288 128.007 561.04 127.367 560.784C126.743 560.528 126.199 560.136 125.735 559.608C125.287 559.08 125.063 558.368 125.063 557.472C125.063 556.736 125.271 556.064 125.687 555.456C126.119 554.848 126.727 554.368 127.511 554.016C128.311 553.664 129.247 553.488 130.319 553.488C131.903 553.488 133.167 553.888 134.111 554.688C135.055 555.472 135.575 556.536 135.671 557.88H132.455C132.407 557.352 132.183 556.936 131.783 556.632C131.399 556.312 130.879 556.152 130.223 556.152C129.615 556.152 129.143 556.264 128.807 556.488C128.487 556.712 128.327 557.024 128.327 557.424C128.327 557.872 128.551 558.216 128.999 558.456C129.447 558.68 130.143 558.912 131.087 559.152C132.047 559.392 132.839 559.64 133.463 559.896C134.087 560.152 134.623 560.552 135.071 561.096C135.535 561.624 135.775 562.328 135.791 563.208C135.791 563.976 135.575 564.664 135.143 565.272C134.727 565.88 134.119 566.36 133.319 566.712C132.535 567.048 131.615 567.216 130.559 567.216Z" fill="black"/>
<rect y="595" width="753" height="12" rx="6" fill="#EDECEC"/>
<rect y="595" width="681" height="12" rx="6" fill="#192BC2"/>
<g filter="url(#filter6_d_125_123)">
<circle cx="680" cy="601" r="16" fill="#EDECEC"/>
<circle cx="680" cy="601" r="14.5" stroke="#150578" stroke-width="3"/>
</g>
<path d="M19.92 641.248V658H16.56V647.104L12.072 658H9.528L5.016 647.104V658H1.656V641.248H5.472L10.8 653.704L16.128 641.248H19.92ZM23.0979 651.304C23.0979 649.96 23.3619 648.768 23.8899 647.728C24.4339 646.688 25.1619 645.888 26.0739 645.328C27.0019 644.768 28.0339 644.488 29.1699 644.488C30.1619 644.488 31.0259 644.688 31.7619 645.088C32.5139 645.488 33.1139 645.992 33.5619 646.6V644.704H36.9459V658H33.5619V656.056C33.1299 656.68 32.5299 657.2 31.7619 657.616C31.0099 658.016 30.1379 658.216 29.1459 658.216C28.0259 658.216 27.0019 657.928 26.0739 657.352C25.1619 656.776 24.4339 655.968 23.8899 654.928C23.3619 653.872 23.0979 652.664 23.0979 651.304ZM33.5619 651.352C33.5619 650.536 33.4019 649.84 33.0819 649.264C32.7619 648.672 32.3299 648.224 31.7859 647.92C31.2419 647.6 30.6579 647.44 30.0339 647.44C29.4099 647.44 28.8339 647.592 28.3059 647.896C27.7779 648.2 27.3459 648.648 27.0099 649.24C26.6899 649.816 26.5299 650.504 26.5299 651.304C26.5299 652.104 26.6899 652.808 27.0099 653.416C27.3459 654.008 27.7779 654.464 28.3059 654.784C28.8499 655.104 29.4259 655.264 30.0339 655.264C30.6579 655.264 31.2419 655.112 31.7859 654.808C32.3299 654.488 32.7619 654.04 33.0819 653.464C33.4019 652.872 33.5619 652.168 33.5619 651.352ZM44.3076 646.768C44.7396 646.064 45.2996 645.512 45.9876 645.112C46.6916 644.712 47.4916 644.512 48.3876 644.512V648.04H47.4996C46.4436 648.04 45.6436 648.288 45.0996 648.784C44.5716 649.28 44.3076 650.144 44.3076 651.376V658H40.9476V644.704H44.3076V646.768ZM59.2427 658L54.7307 652.336V658H51.3707V640.24H54.7307V650.344L59.1947 644.704H63.5627L57.7067 651.376L63.6107 658H59.2427ZM78.4663 651.064C78.4663 651.544 78.4343 651.976 78.3703 652.36H68.6503C68.7303 653.32 69.0663 654.072 69.6583 654.616C70.2503 655.16 70.9783 655.432 71.8423 655.432C73.0903 655.432 73.9783 654.896 74.5063 653.824H78.1303C77.7463 655.104 77.0103 656.16 75.9223 656.992C74.8343 657.808 73.4983 658.216 71.9143 658.216C70.6343 658.216 69.4823 657.936 68.4583 657.376C67.4503 656.8 66.6583 655.992 66.0823 654.952C65.5223 653.912 65.2423 652.712 65.2423 651.352C65.2423 649.976 65.5223 648.768 66.0823 647.728C66.6423 646.688 67.4263 645.888 68.4343 645.328C69.4423 644.768 70.6023 644.488 71.9143 644.488C73.1783 644.488 74.3063 644.76 75.2983 645.304C76.3063 645.848 77.0823 646.624 77.6263 647.632C78.1863 648.624 78.4663 649.768 78.4663 651.064ZM74.9863 650.104C74.9703 649.24 74.6583 648.552 74.0503 648.04C73.4423 647.512 72.6983 647.248 71.8183 647.248C70.9863 647.248 70.2823 647.504 69.7063 648.016C69.1463 648.512 68.8023 649.208 68.6743 650.104H74.9863ZM85.5508 647.464V653.896C85.5508 654.344 85.6548 654.672 85.8628 654.88C86.0868 655.072 86.4548 655.168 86.9668 655.168H88.5268V658H86.4148C83.5828 658 82.1668 656.624 82.1668 653.872V647.464H80.5828V644.704H82.1668V641.416H85.5508V644.704H88.5268V647.464H85.5508ZM93.3675 643.12C92.7755 643.12 92.2795 642.936 91.8795 642.568C91.4955 642.184 91.3035 641.712 91.3035 641.152C91.3035 640.592 91.4955 640.128 91.8795 639.76C92.2795 639.376 92.7755 639.184 93.3675 639.184C93.9595 639.184 94.4475 639.376 94.8315 639.76C95.2315 640.128 95.4315 640.592 95.4315 641.152C95.4315 641.712 95.2315 642.184 94.8315 642.568C94.4475 642.936 93.9595 643.12 93.3675 643.12ZM95.0235 644.704V658H91.6635V644.704H95.0235ZM106.431 644.512C108.015 644.512 109.295 645.016 110.271 646.024C111.247 647.016 111.735 648.408 111.735 650.2V658H108.375V650.656C108.375 649.6 108.111 648.792 107.583 648.232C107.055 647.656 106.335 647.368 105.423 647.368C104.495 647.368 103.759 647.656 103.215 648.232C102.687 648.792 102.423 649.6 102.423 650.656V658H99.0632V644.704H102.423V646.36C102.871 645.784 103.439 645.336 104.127 645.016C104.831 644.68 105.599 644.512 106.431 644.512ZM120.858 644.488C121.85 644.488 122.722 644.688 123.474 645.088C124.226 645.472 124.818 645.976 125.25 646.6V644.704H128.634V658.096C128.634 659.328 128.386 660.424 127.89 661.384C127.394 662.36 126.65 663.128 125.658 663.688C124.666 664.264 123.466 664.552 122.058 664.552C120.17 664.552 118.618 664.112 117.402 663.232C116.202 662.352 115.522 661.152 115.362 659.632H118.698C118.874 660.24 119.25 660.72 119.826 661.072C120.418 661.44 121.13 661.624 121.962 661.624C122.938 661.624 123.73 661.328 124.338 660.736C124.946 660.16 125.25 659.28 125.25 658.096V656.032C124.818 656.656 124.218 657.176 123.45 657.592C122.698 658.008 121.834 658.216 120.858 658.216C119.738 658.216 118.714 657.928 117.786 657.352C116.858 656.776 116.122 655.968 115.578 654.928C115.05 653.872 114.786 652.664 114.786 651.304C114.786 649.96 115.05 648.768 115.578 647.728C116.122 646.688 116.85 645.888 117.762 645.328C118.69 644.768 119.722 644.488 120.858 644.488ZM125.25 651.352C125.25 650.536 125.09 649.84 124.77 649.264C124.45 648.672 124.018 648.224 123.474 647.92C122.93 647.6 122.346 647.44 121.722 647.44C121.098 647.44 120.522 647.592 119.994 647.896C119.466 648.2 119.034 648.648 118.698 649.24C118.378 649.816 118.218 650.504 118.218 651.304C118.218 652.104 118.378 652.808 118.698 653.416C119.034 654.008 119.466 654.464 119.994 654.784C120.538 655.104 121.114 655.264 121.722 655.264C122.346 655.264 122.93 655.112 123.474 654.808C124.018 654.488 124.45 654.04 124.77 653.464C125.09 652.872 125.25 652.168 125.25 651.352Z" fill="black"/>
<rect y="686" width="753" height="12" rx="6" fill="#EDECEC"/>
<rect y="686" width="637" height="12" rx="6" fill="#192BC2"/>
<g filter="url(#filter7_d_125_123)">
<circle cx="636" cy="692" r="16" fill="#EDECEC"/>
<circle cx="636" cy="692" r="14.5" stroke="#150578" stroke-width="3"/>
</g>
<defs>
<filter id="filter0_d_125_123" x="662" y="41" width="46" height="46" filterUnits="userSpaceOnUse" color-interpolation-filters="sRGB">
<feFlood flood-opacity="0" result="BackgroundImageFix"/>
<feColorMatrix in="SourceAlpha" type="matrix" values="0 0 0 0 0 0 0 0 0 0 0 0 0 0 0 0 0 0 127 0" result="hardAlpha"/>
<feOffset dy="4"/>
<feGaussianBlur stdDeviation="3.5"/>
<feComposite in2="hardAlpha" operator="out"/>
<feColorMatrix type="matrix" values="0 0 0 0 0 0 0 0 0 0 0 0 0 0 0 0 0 0 0.2 0"/>
<feBlend mode="normal" in2="BackgroundImageFix" result="effect1_dropShadow_125_123"/>
<feBlend mode="normal" in="SourceGraphic" in2="effect1_dropShadow_125_123" result="shape"/>
</filter>
<filter id="filter1_d_125_123" x="630" y="132" width="46" height="46" filterUnits="userSpaceOnUse" color-interpolation-filters="sRGB">
<feFlood flood-opacity="0" result="BackgroundImageFix"/>
<feColorMatrix in="SourceAlpha" type="matrix" values="0 0 0 0 0 0 0 0 0 0 0 0 0 0 0 0 0 0 127 0" result="hardAlpha"/>
<feOffset dy="4"/>
<feGaussianBlur stdDeviation="3.5"/>
<feComposite in2="hardAlpha" operator="out"/>
<feColorMatrix type="matrix" values="0 0 0 0 0 0 0 0 0 0 0 0 0 0 0 0 0 0 0.2 0"/>
<feBlend mode="normal" in2="BackgroundImageFix" result="effect1_dropShadow_125_123"/>
<feBlend mode="normal" in="SourceGraphic" in2="effect1_dropShadow_125_123" result="shape"/>
</filter>
<filter id="filter2_d_125_123" x="694" y="223" width="46" height="46" filterUnits="userSpaceOnUse" color-interpolation-filters="sRGB">
<feFlood flood-opacity="0" result="BackgroundImageFix"/>
<feColorMatrix in="SourceAlpha" type="matrix" values="0 0 0 0 0 0 0 0 0 0 0 0 0 0 0 0 0 0 127 0" result="hardAlpha"/>
<feOffset dy="4"/>
<feGaussianBlur stdDeviation="3.5"/>
<feComposite in2="hardAlpha" operator="out"/>
<feColorMatrix type="matrix" values="0 0 0 0 0 0 0 0 0 0 0 0 0 0 0 0 0 0 0.2 0"/>
<feBlend mode="normal" in2="BackgroundImageFix" result="effect1_dropShadow_125_123"/>
<feBlend mode="normal" in="SourceGraphic" in2="effect1_dropShadow_125_123" result="shape"/>
</filter>
<filter id="filter3_d_125_123" x="662" y="314" width="46" height="46" filterUnits="userSpaceOnUse" color-interpolation-filters="sRGB">
<feFlood flood-opacity="0" result="BackgroundImageFix"/>
<feColorMatrix in="SourceAlpha" type="matrix" values="0 0 0 0 0 0 0 0 0 0 0 0 0 0 0 0 0 0 127 0" result="hardAlpha"/>
<feOffset dy="4"/>
<feGaussianBlur stdDeviation="3.5"/>
<feComposite in2="hardAlpha" operator="out"/>
<feColorMatrix type="matrix" values="0 0 0 0 0 0 0 0 0 0 0 0 0 0 0 0 0 0 0.2 0"/>
<feBlend mode="normal" in2="BackgroundImageFix" result="effect1_dropShadow_125_123"/>
<feBlend mode="normal" in="SourceGraphic" in2="effect1_dropShadow_125_123" result="shape"/>
</filter>
<filter id="filter4_d_125_123" x="662" y="400" width="46" height="46" filterUnits="userSpaceOnUse" color-interpolation-filters="sRGB">
<feFlood flood-opacity="0" result="BackgroundImageFix"/>
<feColorMatrix in="SourceAlpha" type="matrix" values="0 0 0 0 0 0 0 0 0 0 0 0 0 0 0 0 0 0 127 0" result="hardAlpha"/>
<feOffset dy="4"/>
<feGaussianBlur stdDeviation="3.5"/>
<feComposite in2="hardAlpha" operator="out"/>
<feColorMatrix type="matrix" values="0 0 0 0 0 0 0 0 0 0 0 0 0 0 0 0 0 0 0.2 0"/>
<feBlend mode="normal" in2="BackgroundImageFix" result="effect1_dropShadow_125_123"/>
<feBlend mode="normal" in="SourceGraphic" in2="effect1_dropShadow_125_123" result="shape"/>
</filter>
<filter id="filter5_d_125_123" x="514" y="491" width="46" height="46" filterUnits="userSpaceOnUse" color-interpolation-filters="sRGB">
<feFlood flood-opacity="0" result="BackgroundImageFix"/>
<feColorMatrix in="SourceAlpha" type="matrix" values="0 0 0 0 0 0 0 0 0 0 0 0 0 0 0 0 0 0 127 0" result="hardAlpha"/>
<feOffset dy="4"/>
<feGaussianBlur stdDeviation="3.5"/>
<feComposite in2="hardAlpha" operator="out"/>
<feColorMatrix type="matrix" values="0 0 0 0 0 0 0 0 0 0 0 0 0 0 0 0 0 0 0.2 0"/>
<feBlend mode="normal" in2="BackgroundImageFix" result="effect1_dropShadow_125_123"/>
<feBlend mode="normal" in="SourceGraphic" in2="effect1_dropShadow_125_123" result="shape"/>
</filter>
<filter id="filter6_d_125_123" x="657" y="582" width="46" height="46" filterUnits="userSpaceOnUse" color-interpolation-filters="sRGB">
<feFlood flood-opacity="0" result="BackgroundImageFix"/>
<feColorMatrix in="SourceAlpha" type="matrix" values="0 0 0 0 0 0 0 0 0 0 0 0 0 0 0 0 0 0 127 0" result="hardAlpha"/>
<feOffset dy="4"/>
<feGaussianBlur stdDeviation="3.5"/>
<feComposite in2="hardAlpha" operator="out"/>
<feColorMatrix type="matrix" values="0 0 0 0 0 0 0 0 0 0 0 0 0 0 0 0 0 0 0.2 0"/>
<feBlend mode="normal" in2="BackgroundImageFix" result="effect1_dropShadow_125_123"/>
<feBlend mode="normal" in="SourceGraphic" in2="effect1_dropShadow_125_123" result="shape"/>
</filter>
<filter id="filter7_d_125_123" x="613" y="673" width="46" height="46" filterUnits="userSpaceOnUse" color-interpolation-filters="sRGB">
<feFlood flood-opacity="0" result="BackgroundImageFix"/>
<feColorMatrix in="SourceAlpha" type="matrix" values="0 0 0 0 0 0 0 0 0 0 0 0 0 0 0 0 0 0 127 0" result="hardAlpha"/>
<feOffset dy="4"/>
<feGaussianBlur stdDeviation="3.5"/>
<feComposite in2="hardAlpha" operator="out"/>
<feColorMatrix type="matrix" values="0 0 0 0 0 0 0 0 0 0 0 0 0 0 0 0 0 0 0.2 0"/>
<feBlend mode="normal" in2="BackgroundImageFix" result="effect1_dropShadow_125_123"/>
<feBlend mode="normal" in="SourceGraphic" in2="effect1_dropShadow_125_123" result="shape"/>
</filter>
</defs>
</svg>
