<svg width="753" height="360" viewBox="0 0 753 360" fill="none" xmlns="http://www.w3.org/2000/svg">
<path d="M15.552 9.248V26H12.192V18.872H5.016V26H1.656V9.248H5.016V16.136H12.192V9.248H15.552ZM30.9791 9.248V11.96H26.5151V26H23.1551V11.96H18.6911V9.248H30.9791ZM52.4147 9.248V26H49.0547V15.104L44.5667 26H42.0227L37.5107 15.104V26H34.1507V9.248H37.9667L43.2947 21.704L48.6227 9.248H52.4147ZM59.8166 23.336H65.3366V26H56.4566V9.248H59.8166V23.336Z" fill="black"/>
<rect y="54" width="753" height="12" rx="6" fill="#EDECEC"/>
<rect y="54" width="687" height="12" rx="6" fill="#192BC2"/>
<g filter="url(#filter0_d_120_68)">
<circle cx="685" cy="60" r="16" fill="#EDECEC"/>
<circle cx="685" cy="60" r="14.5" stroke="#150578" stroke-width="3"/>
</g>
<path d="M0.84 108.6C0.84 106.952 1.208 105.48 1.944 104.184C2.696 102.872 3.712 101.856 4.992 101.136C6.288 100.4 7.736 100.032 9.336 100.032C11.208 100.032 12.848 100.512 14.256 101.472C15.664 102.432 16.648 103.76 17.208 105.456H13.344C12.96 104.656 12.416 104.056 11.712 103.656C11.024 103.256 10.224 103.056 9.312 103.056C8.336 103.056 7.464 103.288 6.696 103.752C5.944 104.2 5.352 104.84 4.92 105.672C4.504 106.504 4.296 107.48 4.296 108.6C4.296 109.704 4.504 110.68 4.92 111.528C5.352 112.36 5.944 113.008 6.696 113.472C7.464 113.92 8.336 114.144 9.312 114.144C10.224 114.144 11.024 113.944 11.712 113.544C12.416 113.128 12.96 112.52 13.344 111.72H17.208C16.648 113.432 15.664 114.768 14.256 115.728C12.864 116.672 11.224 117.144 9.336 117.144C7.736 117.144 6.288 116.784 4.992 116.064C3.712 115.328 2.696 114.312 1.944 113.016C1.208 111.72 0.84 110.248 0.84 108.6ZM26.5819 117.168C25.4139 117.168 24.3579 116.968 23.4139 116.568C22.4859 116.168 21.7499 115.592 21.2059 114.84C20.6619 114.088 20.3819 113.2 20.3659 112.176H23.9659C24.0139 112.864 24.2539 113.408 24.6859 113.808C25.1339 114.208 25.7419 114.408 26.5099 114.408C27.2939 114.408 27.9099 114.224 28.3579 113.856C28.8059 113.472 29.0299 112.976 29.0299 112.368C29.0299 111.872 28.8779 111.464 28.5739 111.144C28.2699 110.824 27.8859 110.576 27.4219 110.4C26.9739 110.208 26.3499 110 25.5499 109.776C24.4619 109.456 23.5739 109.144 22.8859 108.84C22.2139 108.52 21.6299 108.048 21.1339 107.424C20.6539 106.784 20.4139 105.936 20.4139 104.88C20.4139 103.888 20.6619 103.024 21.1579 102.288C21.6539 101.552 22.3499 100.992 23.2459 100.608C24.1419 100.208 25.1659 100.008 26.3179 100.008C28.0459 100.008 29.4459 100.432 30.5179 101.28C31.6059 102.112 32.2059 103.28 32.3179 104.784H28.6219C28.5899 104.208 28.3419 103.736 27.8779 103.368C27.4299 102.984 26.8299 102.792 26.0779 102.792C25.4219 102.792 24.8939 102.96 24.4939 103.296C24.1099 103.632 23.9179 104.12 23.9179 104.76C23.9179 105.208 24.0619 105.584 24.3499 105.888C24.6539 106.176 25.0219 106.416 25.4539 106.608C25.9019 106.784 26.5259 106.992 27.3259 107.232C28.4139 107.552 29.3019 107.872 29.9899 108.192C30.6779 108.512 31.2699 108.992 31.7659 109.632C32.2619 110.272 32.5099 111.112 32.5099 112.152C32.5099 113.048 32.2779 113.88 31.8139 114.648C31.3499 115.416 30.6699 116.032 29.7739 116.496C28.8779 116.944 27.8139 117.168 26.5819 117.168ZM41.9269 117.168C40.7589 117.168 39.7029 116.968 38.7589 116.568C37.8309 116.168 37.0949 115.592 36.5509 114.84C36.0069 114.088 35.7269 113.2 35.7109 112.176H39.3109C39.3589 112.864 39.5989 113.408 40.0309 113.808C40.4789 114.208 41.0869 114.408 41.8549 114.408C42.6389 114.408 43.2549 114.224 43.7029 113.856C44.1509 113.472 44.3749 112.976 44.3749 112.368C44.3749 111.872 44.2229 111.464 43.9189 111.144C43.6149 110.824 43.2309 110.576 42.7669 110.4C42.3189 110.208 41.6949 110 40.8949 109.776C39.8069 109.456 38.9189 109.144 38.2309 108.84C37.5589 108.52 36.9749 108.048 36.4789 107.424C35.9989 106.784 35.7589 105.936 35.7589 104.88C35.7589 103.888 36.0069 103.024 36.5029 102.288C36.9989 101.552 37.6949 100.992 38.5909 100.608C39.4869 100.208 40.5109 100.008 41.6629 100.008C43.3909 100.008 44.7909 100.432 45.8629 101.28C46.9509 102.112 47.5509 103.28 47.6629 104.784H43.9669C43.9349 104.208 43.6869 103.736 43.2229 103.368C42.7749 102.984 42.1749 102.792 41.4229 102.792C40.7669 102.792 40.2389 102.96 39.8389 103.296C39.4549 103.632 39.2629 104.12 39.2629 104.76C39.2629 105.208 39.4069 105.584 39.6949 105.888C39.9989 106.176 40.3669 106.416 40.7989 106.608C41.2469 106.784 41.8709 106.992 42.6709 107.232C43.7589 107.552 44.6469 107.872 45.3349 108.192C46.0229 108.512 46.6149 108.992 47.1109 109.632C47.6069 110.272 47.8549 111.112 47.8549 112.152C47.8549 113.048 47.6229 113.88 47.1589 114.648C46.6949 115.416 46.0149 116.032 45.1189 116.496C44.2229 116.944 43.1589 117.168 41.9269 117.168Z" fill="black"/>
<rect y="145" width="753" height="12" rx="6" fill="#EDECEC"/>
<rect y="145" width="657" height="12" rx="6" fill="#192BC2"/>
<g filter="url(#filter1_d_120_68)">
<circle cx="653" cy="151" r="16" fill="#EDECEC"/>
<circle cx="653" cy="151" r="14.5" stroke="#150578" stroke-width="3"/>
</g>
<path d="M11.928 204.808H5.256L4.152 208H0.624L6.648 191.224H10.56L16.584 208H13.032L11.928 204.808ZM11.016 202.12L8.592 195.112L6.168 202.12H11.016ZM18.6917 201.304C18.6917 199.96 18.9557 198.768 19.4837 197.728C20.0277 196.688 20.7637 195.888 21.6917 195.328C22.6197 194.768 23.6517 194.488 24.7877 194.488C25.6517 194.488 26.4757 194.68 27.2597 195.064C28.0437 195.432 28.6677 195.928 29.1317 196.552V190.24H32.5397V208H29.1317V206.032C28.7157 206.688 28.1317 207.216 27.3797 207.616C26.6277 208.016 25.7557 208.216 24.7637 208.216C23.6437 208.216 22.6197 207.928 21.6917 207.352C20.7637 206.776 20.0277 205.968 19.4837 204.928C18.9557 203.872 18.6917 202.664 18.6917 201.304ZM29.1557 201.352C29.1557 200.536 28.9957 199.84 28.6757 199.264C28.3557 198.672 27.9237 198.224 27.3797 197.92C26.8357 197.6 26.2517 197.44 25.6277 197.44C25.0037 197.44 24.4277 197.592 23.8997 197.896C23.3717 198.2 22.9397 198.648 22.6037 199.24C22.2837 199.816 22.1237 200.504 22.1237 201.304C22.1237 202.104 22.2837 202.808 22.6037 203.416C22.9397 204.008 23.3717 204.464 23.8997 204.784C24.4437 205.104 25.0197 205.264 25.6277 205.264C26.2517 205.264 26.8357 205.112 27.3797 204.808C27.9237 204.488 28.3557 204.04 28.6757 203.464C28.9957 202.872 29.1557 202.168 29.1557 201.352ZM42.4453 208.216C41.1653 208.216 40.0133 207.936 38.9893 207.376C37.9653 206.8 37.1573 205.992 36.5653 204.952C35.9893 203.912 35.7013 202.712 35.7013 201.352C35.7013 199.992 35.9973 198.792 36.5893 197.752C37.1973 196.712 38.0213 195.912 39.0613 195.352C40.1013 194.776 41.2613 194.488 42.5413 194.488C43.8213 194.488 44.9813 194.776 46.0213 195.352C47.0613 195.912 47.8773 196.712 48.4693 197.752C49.0773 198.792 49.3813 199.992 49.3813 201.352C49.3813 202.712 49.0693 203.912 48.4453 204.952C47.8373 205.992 47.0053 206.8 45.9493 207.376C44.9093 207.936 43.7413 208.216 42.4453 208.216ZM42.4453 205.288C43.0533 205.288 43.6213 205.144 44.1493 204.856C44.6933 204.552 45.1253 204.104 45.4453 203.512C45.7653 202.92 45.9253 202.2 45.9253 201.352C45.9253 200.088 45.5893 199.12 44.9173 198.448C44.2613 197.76 43.4533 197.416 42.4933 197.416C41.5333 197.416 40.7253 197.76 40.0693 198.448C39.4293 199.12 39.1093 200.088 39.1093 201.352C39.1093 202.616 39.4213 203.592 40.0453 204.28C40.6853 204.952 41.4853 205.288 42.4453 205.288ZM55.926 196.648C56.358 196.008 56.95 195.488 57.702 195.088C58.47 194.688 59.342 194.488 60.318 194.488C61.454 194.488 62.478 194.768 63.39 195.328C64.318 195.888 65.046 196.688 65.574 197.728C66.118 198.752 66.39 199.944 66.39 201.304C66.39 202.664 66.118 203.872 65.574 204.928C65.046 205.968 64.318 206.776 63.39 207.352C62.478 207.928 61.454 208.216 60.318 208.216C59.326 208.216 58.454 208.024 57.702 207.64C56.966 207.24 56.374 206.728 55.926 206.104V208H52.566V190.24H55.926V196.648ZM62.958 201.304C62.958 200.504 62.79 199.816 62.454 199.24C62.134 198.648 61.702 198.2 61.158 197.896C60.63 197.592 60.054 197.44 59.43 197.44C58.822 197.44 58.246 197.6 57.702 197.92C57.174 198.224 56.742 198.672 56.406 199.264C56.086 199.856 55.926 200.552 55.926 201.352C55.926 202.152 56.086 202.848 56.406 203.44C56.742 204.032 57.174 204.488 57.702 204.808C58.246 205.112 58.822 205.264 59.43 205.264C60.054 205.264 60.63 205.104 61.158 204.784C61.702 204.464 62.134 204.008 62.454 203.416C62.79 202.824 62.958 202.12 62.958 201.304ZM81.9116 201.064C81.9116 201.544 81.8796 201.976 81.8156 202.36H72.0956C72.1756 203.32 72.5116 204.072 73.1036 204.616C73.6956 205.16 74.4236 205.432 75.2876 205.432C76.5356 205.432 77.4236 204.896 77.9516 203.824H81.5756C81.1916 205.104 80.4556 206.16 79.3676 206.992C78.2796 207.808 76.9436 208.216 75.3596 208.216C74.0796 208.216 72.9276 207.936 71.9036 207.376C70.8956 206.8 70.1036 205.992 69.5276 204.952C68.9676 203.912 68.6876 202.712 68.6876 201.352C68.6876 199.976 68.9676 198.768 69.5276 197.728C70.0876 196.688 70.8716 195.888 71.8796 195.328C72.8876 194.768 74.0476 194.488 75.3596 194.488C76.6236 194.488 77.7516 194.76 78.7436 195.304C79.7516 195.848 80.5276 196.624 81.0716 197.632C81.6316 198.624 81.9116 199.768 81.9116 201.064ZM78.4316 200.104C78.4156 199.24 78.1036 198.552 77.4956 198.04C76.8876 197.512 76.1436 197.248 75.2636 197.248C74.4316 197.248 73.7276 197.504 73.1516 198.016C72.5916 198.512 72.2476 199.208 72.1196 200.104H78.4316ZM103.739 196.432C103.739 197.328 103.523 198.168 103.091 198.952C102.675 199.736 102.011 200.368 101.099 200.848C100.203 201.328 99.0669 201.568 97.6909 201.568H94.8829V208H91.5229V191.248H97.6909C98.9869 191.248 100.091 191.472 101.003 191.92C101.915 192.368 102.595 192.984 103.043 193.768C103.507 194.552 103.739 195.44 103.739 196.432ZM97.5469 198.856C98.4749 198.856 99.1629 198.648 99.6109 198.232C100.059 197.8 100.283 197.2 100.283 196.432C100.283 194.8 99.3709 193.984 97.5469 193.984H94.8829V198.856H97.5469ZM114.332 194.512C115.34 194.512 116.236 194.736 117.02 195.184C117.804 195.616 118.412 196.264 118.844 197.128C119.292 197.976 119.516 199 119.516 200.2V208H116.156V200.656C116.156 199.6 115.892 198.792 115.364 198.232C114.836 197.656 114.116 197.368 113.204 197.368C112.276 197.368 111.54 197.656 110.996 198.232C110.468 198.792 110.204 199.6 110.204 200.656V208H106.844V190.24H110.204V196.36C110.636 195.784 111.212 195.336 111.932 195.016C112.652 194.68 113.452 194.512 114.332 194.512ZM129.336 208.216C128.056 208.216 126.904 207.936 125.88 207.376C124.856 206.8 124.048 205.992 123.456 204.952C122.88 203.912 122.592 202.712 122.592 201.352C122.592 199.992 122.888 198.792 123.48 197.752C124.088 196.712 124.912 195.912 125.952 195.352C126.992 194.776 128.152 194.488 129.432 194.488C130.712 194.488 131.872 194.776 132.912 195.352C133.952 195.912 134.768 196.712 135.36 197.752C135.968 198.792 136.272 199.992 136.272 201.352C136.272 202.712 135.96 203.912 135.336 204.952C134.728 205.992 133.896 206.8 132.84 207.376C131.8 207.936 130.632 208.216 129.336 208.216ZM129.336 205.288C129.944 205.288 130.512 205.144 131.04 204.856C131.584 204.552 132.016 204.104 132.336 203.512C132.656 202.92 132.816 202.2 132.816 201.352C132.816 200.088 132.48 199.12 131.808 198.448C131.152 197.76 130.344 197.416 129.384 197.416C128.424 197.416 127.616 197.76 126.96 198.448C126.32 199.12 126 200.088 126 201.352C126 202.616 126.312 203.592 126.936 204.28C127.576 204.952 128.376 205.288 129.336 205.288ZM143.368 197.464V203.896C143.368 204.344 143.472 204.672 143.68 204.88C143.904 205.072 144.272 205.168 144.784 205.168H146.344V208H144.232C141.4 208 139.984 206.624 139.984 203.872V197.464H138.4V194.704H139.984V191.416H143.368V194.704H146.344V197.464H143.368ZM155.385 208.216C154.105 208.216 152.953 207.936 151.929 207.376C150.905 206.8 150.097 205.992 149.505 204.952C148.929 203.912 148.641 202.712 148.641 201.352C148.641 199.992 148.937 198.792 149.529 197.752C150.137 196.712 150.961 195.912 152.001 195.352C153.041 194.776 154.201 194.488 155.481 194.488C156.761 194.488 157.921 194.776 158.961 195.352C160.001 195.912 160.817 196.712 161.409 197.752C162.017 198.792 162.321 199.992 162.321 201.352C162.321 202.712 162.009 203.912 161.385 204.952C160.777 205.992 159.945 206.8 158.889 207.376C157.849 207.936 156.681 208.216 155.385 208.216ZM155.385 205.288C155.993 205.288 156.561 205.144 157.089 204.856C157.633 204.552 158.065 204.104 158.385 203.512C158.705 202.92 158.865 202.2 158.865 201.352C158.865 200.088 158.529 199.12 157.857 198.448C157.201 197.76 156.393 197.416 155.433 197.416C154.473 197.416 153.665 197.76 153.009 198.448C152.369 199.12 152.049 200.088 152.049 201.352C152.049 202.616 152.361 203.592 152.985 204.28C153.625 204.952 154.425 205.288 155.385 205.288ZM170.594 208.216C169.506 208.216 168.53 208.024 167.666 207.64C166.802 207.24 166.114 206.704 165.602 206.032C165.106 205.36 164.834 204.616 164.786 203.8H168.17C168.234 204.312 168.482 204.736 168.914 205.072C169.362 205.408 169.914 205.576 170.57 205.576C171.21 205.576 171.706 205.448 172.058 205.192C172.426 204.936 172.61 204.608 172.61 204.208C172.61 203.776 172.386 203.456 171.938 203.248C171.506 203.024 170.81 202.784 169.85 202.528C168.858 202.288 168.042 202.04 167.402 201.784C166.778 201.528 166.234 201.136 165.77 200.608C165.322 200.08 165.098 199.368 165.098 198.472C165.098 197.736 165.306 197.064 165.722 196.456C166.154 195.848 166.762 195.368 167.546 195.016C168.346 194.664 169.282 194.488 170.354 194.488C171.938 194.488 173.202 194.888 174.146 195.688C175.09 196.472 175.61 197.536 175.706 198.88H172.49C172.442 198.352 172.218 197.936 171.818 197.632C171.434 197.312 170.914 197.152 170.258 197.152C169.65 197.152 169.178 197.264 168.842 197.488C168.522 197.712 168.362 198.024 168.362 198.424C168.362 198.872 168.586 199.216 169.034 199.456C169.482 199.68 170.178 199.912 171.122 200.152C172.082 200.392 172.874 200.64 173.498 200.896C174.122 201.152 174.658 201.552 175.106 202.096C175.57 202.624 175.81 203.328 175.826 204.208C175.826 204.976 175.61 205.664 175.178 206.272C174.762 206.88 174.154 207.36 173.354 207.712C172.57 208.048 171.65 208.216 170.594 208.216ZM186.792 194.512C187.8 194.512 188.696 194.736 189.48 195.184C190.264 195.616 190.872 196.264 191.304 197.128C191.752 197.976 191.976 199 191.976 200.2V208H188.616V200.656C188.616 199.6 188.352 198.792 187.824 198.232C187.296 197.656 186.576 197.368 185.664 197.368C184.736 197.368 184 197.656 183.456 198.232C182.928 198.792 182.664 199.6 182.664 200.656V208H179.304V190.24H182.664V196.36C183.096 195.784 183.672 195.336 184.392 195.016C185.112 194.68 185.912 194.512 186.792 194.512ZM201.795 208.216C200.515 208.216 199.363 207.936 198.339 207.376C197.315 206.8 196.507 205.992 195.915 204.952C195.339 203.912 195.051 202.712 195.051 201.352C195.051 199.992 195.347 198.792 195.939 197.752C196.547 196.712 197.371 195.912 198.411 195.352C199.451 194.776 200.611 194.488 201.891 194.488C203.171 194.488 204.331 194.776 205.371 195.352C206.411 195.912 207.227 196.712 207.819 197.752C208.427 198.792 208.731 199.992 208.731 201.352C208.731 202.712 208.419 203.912 207.795 204.952C207.187 205.992 206.355 206.8 205.299 207.376C204.259 207.936 203.091 208.216 201.795 208.216ZM201.795 205.288C202.403 205.288 202.971 205.144 203.499 204.856C204.043 204.552 204.475 204.104 204.795 203.512C205.115 202.92 205.275 202.2 205.275 201.352C205.275 200.088 204.939 199.12 204.267 198.448C203.611 197.76 202.803 197.416 201.843 197.416C200.883 197.416 200.075 197.76 199.419 198.448C198.779 199.12 198.459 200.088 198.459 201.352C198.459 202.616 198.771 203.592 199.395 204.28C200.035 204.952 200.835 205.288 201.795 205.288ZM215.276 196.624C215.708 196.016 216.3 195.512 217.052 195.112C217.82 194.696 218.692 194.488 219.668 194.488C220.804 194.488 221.828 194.768 222.74 195.328C223.668 195.888 224.396 196.688 224.924 197.728C225.468 198.752 225.74 199.944 225.74 201.304C225.74 202.664 225.468 203.872 224.924 204.928C224.396 205.968 223.668 206.776 222.74 207.352C221.828 207.928 220.804 208.216 219.668 208.216C218.692 208.216 217.828 208.016 217.076 207.616C216.34 207.216 215.74 206.712 215.276 206.104V214.336H211.916V194.704H215.276V196.624ZM222.308 201.304C222.308 200.504 222.14 199.816 221.804 199.24C221.484 198.648 221.052 198.2 220.508 197.896C219.98 197.592 219.404 197.44 218.78 197.44C218.172 197.44 217.596 197.6 217.052 197.92C216.524 198.224 216.092 198.672 215.756 199.264C215.436 199.856 215.276 200.552 215.276 201.352C215.276 202.152 215.436 202.848 215.756 203.44C216.092 204.032 216.524 204.488 217.052 204.808C217.596 205.112 218.172 205.264 218.78 205.264C219.404 205.264 219.98 205.104 220.508 204.784C221.052 204.464 221.484 204.008 221.804 203.416C222.14 202.824 222.308 202.12 222.308 201.304Z" fill="black"/>
<rect y="236" width="753" height="12" rx="6" fill="#EDECEC"/>
<rect y="236" width="721" height="12" rx="6" fill="#192BC2"/>
<g filter="url(#filter2_d_120_68)">
<circle cx="717" cy="242" r="16" fill="#EDECEC"/>
<circle cx="717" cy="242" r="14.5" stroke="#150578" stroke-width="3"/>
</g>
<path d="M11.928 295.808H5.256L4.152 299H0.624L6.648 282.224H10.56L16.584 299H13.032L11.928 295.808ZM11.016 293.12L8.592 286.112L6.168 293.12H11.016ZM18.6917 292.304C18.6917 290.96 18.9557 289.768 19.4837 288.728C20.0277 287.688 20.7637 286.888 21.6917 286.328C22.6197 285.768 23.6517 285.488 24.7877 285.488C25.6517 285.488 26.4757 285.68 27.2597 286.064C28.0437 286.432 28.6677 286.928 29.1317 287.552V281.24H32.5397V299H29.1317V297.032C28.7157 297.688 28.1317 298.216 27.3797 298.616C26.6277 299.016 25.7557 299.216 24.7637 299.216C23.6437 299.216 22.6197 298.928 21.6917 298.352C20.7637 297.776 20.0277 296.968 19.4837 295.928C18.9557 294.872 18.6917 293.664 18.6917 292.304ZM29.1557 292.352C29.1557 291.536 28.9957 290.84 28.6757 290.264C28.3557 289.672 27.9237 289.224 27.3797 288.92C26.8357 288.6 26.2517 288.44 25.6277 288.44C25.0037 288.44 24.4277 288.592 23.8997 288.896C23.3717 289.2 22.9397 289.648 22.6037 290.24C22.2837 290.816 22.1237 291.504 22.1237 292.304C22.1237 293.104 22.2837 293.808 22.6037 294.416C22.9397 295.008 23.3717 295.464 23.8997 295.784C24.4437 296.104 25.0197 296.264 25.6277 296.264C26.2517 296.264 26.8357 296.112 27.3797 295.808C27.9237 295.488 28.3557 295.04 28.6757 294.464C28.9957 293.872 29.1557 293.168 29.1557 292.352ZM42.4453 299.216C41.1653 299.216 40.0133 298.936 38.9893 298.376C37.9653 297.8 37.1573 296.992 36.5653 295.952C35.9893 294.912 35.7013 293.712 35.7013 292.352C35.7013 290.992 35.9973 289.792 36.5893 288.752C37.1973 287.712 38.0213 286.912 39.0613 286.352C40.1013 285.776 41.2613 285.488 42.5413 285.488C43.8213 285.488 44.9813 285.776 46.0213 286.352C47.0613 286.912 47.8773 287.712 48.4693 288.752C49.0773 289.792 49.3813 290.992 49.3813 292.352C49.3813 293.712 49.0693 294.912 48.4453 295.952C47.8373 296.992 47.0053 297.8 45.9493 298.376C44.9093 298.936 43.7413 299.216 42.4453 299.216ZM42.4453 296.288C43.0533 296.288 43.6213 296.144 44.1493 295.856C44.6933 295.552 45.1253 295.104 45.4453 294.512C45.7653 293.92 45.9253 293.2 45.9253 292.352C45.9253 291.088 45.5893 290.12 44.9173 289.448C44.2613 288.76 43.4533 288.416 42.4933 288.416C41.5333 288.416 40.7253 288.76 40.0693 289.448C39.4293 290.12 39.1093 291.088 39.1093 292.352C39.1093 293.616 39.4213 294.592 40.0453 295.28C40.6853 295.952 41.4853 296.288 42.4453 296.288ZM55.926 287.648C56.358 287.008 56.95 286.488 57.702 286.088C58.47 285.688 59.342 285.488 60.318 285.488C61.454 285.488 62.478 285.768 63.39 286.328C64.318 286.888 65.046 287.688 65.574 288.728C66.118 289.752 66.39 290.944 66.39 292.304C66.39 293.664 66.118 294.872 65.574 295.928C65.046 296.968 64.318 297.776 63.39 298.352C62.478 298.928 61.454 299.216 60.318 299.216C59.326 299.216 58.454 299.024 57.702 298.64C56.966 298.24 56.374 297.728 55.926 297.104V299H52.566V281.24H55.926V287.648ZM62.958 292.304C62.958 291.504 62.79 290.816 62.454 290.24C62.134 289.648 61.702 289.2 61.158 288.896C60.63 288.592 60.054 288.44 59.43 288.44C58.822 288.44 58.246 288.6 57.702 288.92C57.174 289.224 56.742 289.672 56.406 290.264C56.086 290.856 55.926 291.552 55.926 292.352C55.926 293.152 56.086 293.848 56.406 294.44C56.742 295.032 57.174 295.488 57.702 295.808C58.246 296.112 58.822 296.264 59.43 296.264C60.054 296.264 60.63 296.104 61.158 295.784C61.702 295.464 62.134 295.008 62.454 294.416C62.79 293.824 62.958 293.12 62.958 292.304ZM81.9116 292.064C81.9116 292.544 81.8796 292.976 81.8156 293.36H72.0956C72.1756 294.32 72.5116 295.072 73.1036 295.616C73.6956 296.16 74.4236 296.432 75.2876 296.432C76.5356 296.432 77.4236 295.896 77.9516 294.824H81.5756C81.1916 296.104 80.4556 297.16 79.3676 297.992C78.2796 298.808 76.9436 299.216 75.3596 299.216C74.0796 299.216 72.9276 298.936 71.9036 298.376C70.8956 297.8 70.1036 296.992 69.5276 295.952C68.9676 294.912 68.6876 293.712 68.6876 292.352C68.6876 290.976 68.9676 289.768 69.5276 288.728C70.0876 287.688 70.8716 286.888 71.8796 286.328C72.8876 285.768 74.0476 285.488 75.3596 285.488C76.6236 285.488 77.7516 285.76 78.7436 286.304C79.7516 286.848 80.5276 287.624 81.0716 288.632C81.6316 289.624 81.9116 290.768 81.9116 292.064ZM78.4316 291.104C78.4156 290.24 78.1036 289.552 77.4956 289.04C76.8876 288.512 76.1436 288.248 75.2636 288.248C74.4316 288.248 73.7276 288.504 73.1516 289.016C72.5916 289.512 72.2476 290.208 72.1196 291.104H78.4316ZM94.8829 282.248V299H91.5229V282.248H94.8829ZM102.283 281.24V299H98.9226V281.24H102.283ZM109.682 281.24V299H106.322V281.24H109.682ZM126.274 285.704V299H122.89V297.32C122.458 297.896 121.89 298.352 121.186 298.688C120.498 299.008 119.746 299.168 118.93 299.168C117.89 299.168 116.97 298.952 116.17 298.52C115.37 298.072 114.738 297.424 114.274 296.576C113.826 295.712 113.602 294.688 113.602 293.504V285.704H116.962V293.024C116.962 294.08 117.226 294.896 117.754 295.472C118.282 296.032 119.002 296.312 119.914 296.312C120.842 296.312 121.57 296.032 122.098 295.472C122.626 294.896 122.89 294.08 122.89 293.024V285.704H126.274ZM135.397 299.216C134.309 299.216 133.333 299.024 132.469 298.64C131.605 298.24 130.917 297.704 130.405 297.032C129.909 296.36 129.637 295.616 129.589 294.8H132.973C133.037 295.312 133.285 295.736 133.717 296.072C134.165 296.408 134.717 296.576 135.373 296.576C136.013 296.576 136.509 296.448 136.861 296.192C137.229 295.936 137.413 295.608 137.413 295.208C137.413 294.776 137.189 294.456 136.741 294.248C136.309 294.024 135.613 293.784 134.653 293.528C133.661 293.288 132.845 293.04 132.205 292.784C131.581 292.528 131.037 292.136 130.573 291.608C130.125 291.08 129.901 290.368 129.901 289.472C129.901 288.736 130.109 288.064 130.525 287.456C130.957 286.848 131.565 286.368 132.349 286.016C133.149 285.664 134.085 285.488 135.157 285.488C136.741 285.488 138.005 285.888 138.949 286.688C139.893 287.472 140.413 288.536 140.509 289.88H137.293C137.245 289.352 137.021 288.936 136.621 288.632C136.237 288.312 135.717 288.152 135.061 288.152C134.453 288.152 133.981 288.264 133.645 288.488C133.325 288.712 133.165 289.024 133.165 289.424C133.165 289.872 133.389 290.216 133.837 290.456C134.285 290.68 134.981 290.912 135.925 291.152C136.885 291.392 137.677 291.64 138.301 291.896C138.925 292.152 139.461 292.552 139.909 293.096C140.373 293.624 140.613 294.328 140.629 295.208C140.629 295.976 140.413 296.664 139.981 297.272C139.565 297.88 138.957 298.36 138.157 298.712C137.373 299.048 136.453 299.216 135.397 299.216ZM148.019 288.464V294.896C148.019 295.344 148.123 295.672 148.331 295.88C148.555 296.072 148.923 296.168 149.435 296.168H150.995V299H148.883C146.051 299 144.635 297.624 144.635 294.872V288.464H143.051V285.704H144.635V282.416H148.019V285.704H150.995V288.464H148.019ZM157.492 287.768C157.924 287.064 158.484 286.512 159.172 286.112C159.876 285.712 160.676 285.512 161.572 285.512V289.04H160.684C159.628 289.04 158.828 289.288 158.284 289.784C157.756 290.28 157.492 291.144 157.492 292.376V299H154.132V285.704H157.492V287.768ZM163.691 292.304C163.691 290.96 163.955 289.768 164.483 288.728C165.027 287.688 165.755 286.888 166.667 286.328C167.595 285.768 168.627 285.488 169.763 285.488C170.755 285.488 171.619 285.688 172.355 286.088C173.107 286.488 173.707 286.992 174.155 287.6V285.704H177.539V299H174.155V297.056C173.723 297.68 173.123 298.2 172.355 298.616C171.603 299.016 170.731 299.216 169.739 299.216C168.619 299.216 167.595 298.928 166.667 298.352C165.755 297.776 165.027 296.968 164.483 295.928C163.955 294.872 163.691 293.664 163.691 292.304ZM174.155 292.352C174.155 291.536 173.995 290.84 173.675 290.264C173.355 289.672 172.923 289.224 172.379 288.92C171.835 288.6 171.251 288.44 170.627 288.44C170.003 288.44 169.427 288.592 168.899 288.896C168.371 289.2 167.939 289.648 167.603 290.24C167.283 290.816 167.123 291.504 167.123 292.304C167.123 293.104 167.283 293.808 167.603 294.416C167.939 295.008 168.371 295.464 168.899 295.784C169.443 296.104 170.019 296.264 170.627 296.264C171.251 296.264 171.835 296.112 172.379 295.808C172.923 295.488 173.355 295.04 173.675 294.464C173.995 293.872 174.155 293.168 174.155 292.352ZM185.453 288.464V294.896C185.453 295.344 185.557 295.672 185.765 295.88C185.989 296.072 186.357 296.168 186.869 296.168H188.429V299H186.317C183.485 299 182.069 297.624 182.069 294.872V288.464H180.485V285.704H182.069V282.416H185.453V285.704H188.429V288.464H185.453ZM197.469 299.216C196.189 299.216 195.037 298.936 194.013 298.376C192.989 297.8 192.181 296.992 191.589 295.952C191.013 294.912 190.725 293.712 190.725 292.352C190.725 290.992 191.021 289.792 191.613 288.752C192.221 287.712 193.045 286.912 194.085 286.352C195.125 285.776 196.285 285.488 197.565 285.488C198.845 285.488 200.005 285.776 201.045 286.352C202.085 286.912 202.901 287.712 203.493 288.752C204.101 289.792 204.405 290.992 204.405 292.352C204.405 293.712 204.093 294.912 203.469 295.952C202.861 296.992 202.029 297.8 200.973 298.376C199.933 298.936 198.765 299.216 197.469 299.216ZM197.469 296.288C198.077 296.288 198.645 296.144 199.173 295.856C199.717 295.552 200.149 295.104 200.469 294.512C200.789 293.92 200.949 293.2 200.949 292.352C200.949 291.088 200.613 290.12 199.941 289.448C199.285 288.76 198.477 288.416 197.517 288.416C196.557 288.416 195.749 288.76 195.093 289.448C194.453 290.12 194.133 291.088 194.133 292.352C194.133 293.616 194.445 294.592 195.069 295.28C195.709 295.952 196.509 296.288 197.469 296.288ZM210.95 287.768C211.382 287.064 211.942 286.512 212.63 286.112C213.334 285.712 214.134 285.512 215.03 285.512V289.04H214.142C213.086 289.04 212.286 289.288 211.742 289.784C211.214 290.28 210.95 291.144 210.95 292.376V299H207.59V285.704H210.95V287.768Z" fill="black"/>
<rect y="327" width="753" height="12" rx="6" fill="#EDECEC"/>
<rect y="327" width="687" height="12" rx="6" fill="#192BC2"/>
<g filter="url(#filter3_d_120_68)">
<circle cx="685" cy="333" r="16" fill="#EDECEC"/>
<circle cx="685" cy="333" r="14.5" stroke="#150578" stroke-width="3"/>
</g>
<defs>
<filter id="filter0_d_120_68" x="662" y="41" width="46" height="46" filterUnits="userSpaceOnUse" color-interpolation-filters="sRGB">
<feFlood flood-opacity="0" result="BackgroundImageFix"/>
<feColorMatrix in="SourceAlpha" type="matrix" values="0 0 0 0 0 0 0 0 0 0 0 0 0 0 0 0 0 0 127 0" result="hardAlpha"/>
<feOffset dy="4"/>
<feGaussianBlur stdDeviation="3.5"/>
<feComposite in2="hardAlpha" operator="out"/>
<feColorMatrix type="matrix" values="0 0 0 0 0 0 0 0 0 0 0 0 0 0 0 0 0 0 0.2 0"/>
<feBlend mode="normal" in2="BackgroundImageFix" result="effect1_dropShadow_120_68"/>
<feBlend mode="normal" in="SourceGraphic" in2="effect1_dropShadow_120_68" result="shape"/>
</filter>
<filter id="filter1_d_120_68" x="630" y="132" width="46" height="46" filterUnits="userSpaceOnUse" color-interpolation-filters="sRGB">
<feFlood flood-opacity="0" result="BackgroundImageFix"/>
<feColorMatrix in="SourceAlpha" type="matrix" values="0 0 0 0 0 0 0 0 0 0 0 0 0 0 0 0 0 0 127 0" result="hardAlpha"/>
<feOffset dy="4"/>
<feGaussianBlur stdDeviation="3.5"/>
<feComposite in2="hardAlpha" operator="out"/>
<feColorMatrix type="matrix" values="0 0 0 0 0 0 0 0 0 0 0 0 0 0 0 0 0 0 0.2 0"/>
<feBlend mode="normal" in2="BackgroundImageFix" result="effect1_dropShadow_120_68"/>
<feBlend mode="normal" in="SourceGraphic" in2="effect1_dropShadow_120_68" result="shape"/>
</filter>
<filter id="filter2_d_120_68" x="694" y="223" width="46" height="46" filterUnits="userSpaceOnUse" color-interpolation-filters="sRGB">
<feFlood flood-opacity="0" result="BackgroundImageFix"/>
<feColorMatrix in="SourceAlpha" type="matrix" values="0 0 0 0 0 0 0 0 0 0 0 0 0 0 0 0 0 0 127 0" result="hardAlpha"/>
<feOffset dy="4"/>
<feGaussianBlur stdDeviation="3.5"/>
<feComposite in2="hardAlpha" operator="out"/>
<feColorMatrix type="matrix" values="0 0 0 0 0 0 0 0 0 0 0 0 0 0 0 0 0 0 0.2 0"/>
<feBlend mode="normal" in2="BackgroundImageFix" result="effect1_dropShadow_120_68"/>
<feBlend mode="normal" in="SourceGraphic" in2="effect1_dropShadow_120_68" result="shape"/>
</filter>
<filter id="filter3_d_120_68" x="662" y="314" width="46" height="46" filterUnits="userSpaceOnUse" color-interpolation-filters="sRGB">
<feFlood flood-opacity="0" result="BackgroundImageFix"/>
<feColorMatrix in="SourceAlpha" type="matrix" values="0 0 0 0 0 0 0 0 0 0 0 0 0 0 0 0 0 0 127 0" result="hardAlpha"/>
<feOffset dy="4"/>
<feGaussianBlur stdDeviation="3.5"/>
<feComposite in2="hardAlpha" operator="out"/>
<feColorMatrix type="matrix" values="0 0 0 0 0 0 0 0 0 0 0 0 0 0 0 0 0 0 0.2 0"/>
<feBlend mode="normal" in2="BackgroundImageFix" result="effect1_dropShadow_120_68"/>
<feBlend mode="normal" in="SourceGraphic" in2="effect1_dropShadow_120_68" result="shape"/>
</filter>
</defs>
</svg>
